<svg width="201" height="201" viewBox="0 0 201 201" fill="none" xmlns="http://www.w3.org/2000/svg">
<path d="M100.619 200.682C155.739 200.682 200.423 155.911 200.423 100.682C200.423 45.454 155.739 0.682434 100.619 0.682434C45.499 0.682434 0.81543 45.454 0.81543 100.682C0.81543 155.911 45.499 200.682 100.619 200.682Z" fill="#627EEA"/>
<path d="M103.729 25.6688V81.1089L150.494 102.049L103.729 25.6688Z" fill="white" fill-opacity="0.602"/>
<path d="M103.729 25.6688L56.9648 102.049L103.729 81.1089V25.6688Z" fill="white"/>
<path d="M103.729 137.971V175.641L150.521 110.77L103.729 137.971Z" fill="white" fill-opacity="0.602"/>
<path d="M103.729 175.641V137.971L56.9648 110.77L103.729 175.641Z" fill="white"/>
<path d="M103.729 129.25L150.494 102.049L103.729 81.1089V129.25Z" fill="white" fill-opacity="0.2"/>
<path d="M56.9648 102.049L103.729 129.25V81.1089L56.9648 102.049Z" fill="white" fill-opacity="0.602"/>
</svg>
