<svg width="603" height="166" viewBox="0 0 603 166" fill="none" xmlns="http://www.w3.org/2000/svg">
<rect x="185.5" y="46.5" width="219" height="119" rx="4.5" fill="#1C0200" stroke="white"/>
<path opacity="0.3" d="M229.11 85.45L228 83.24L224.89 89.45C224.72 89.79 224.38 90 224 90C223.62 90 223.28 89.79 223.11 89.45L221.38 86H216V88H218V91H234V88H236V86H230C229.62 86 229.28 85.79 229.11 85.45Z" fill="#F94432"/>
<path opacity="0.3" d="M234 79H218V82H216V84H222C222.38 84 222.72 84.21 222.89 84.55L224 86.76L227.11 80.55C227.45 79.87 228.56 79.87 228.9 80.55L230.62 84H236V82H234V79Z" fill="#F94432"/>
<path d="M234 77H218C216.9 77 216 77.9 216 79V82H218V79H234V82H236V79C236 77.9 235.1 77 234 77ZM234 91H218V88H216V91C216 92.1 216.9 93 218 93H234C235.1 93 236 92.1 236 91V88H234V91Z" fill="#F94432"/>
<path d="M228.89 80.55C228.55 79.87 227.44 79.87 227.1 80.55L224 86.76L222.89 84.55C222.808 84.3842 222.681 84.2447 222.524 84.1475C222.366 84.0503 222.185 83.9992 222 84H216V86H221.38L223.1 89.45C223.28 89.79 223.62 90 224 90C224.38 90 224.72 89.79 224.89 89.45L228 83.24L229.11 85.45C229.28 85.79 229.62 86 230 86H236V84H230.62L228.89 80.55Z" fill="#F94432"/>
<path d="M212.505 114.81C212.505 114.91 212.585 115 212.685 115H215.125C217.055 115 218.635 113.43 218.635 111.49C218.635 109.57 217.055 108 215.125 108H212.685C212.585 108 212.505 108.09 212.505 108.19V114.81ZM214.065 113.52V109.47H215.025C216.155 109.47 216.975 110.36 216.975 111.49C216.975 112.63 216.155 113.52 215.025 113.52H214.065ZM219.21 115H220.31C220.51 115 220.62 114.88 220.67 114.76L221.03 113.96H223.75L224.11 114.75C224.2 114.94 224.28 115 224.46 115H225.57C225.72 115 225.8 114.87 225.74 114.74L222.61 108.01C222.58 107.95 222.51 107.9 222.44 107.9H222.34C222.27 107.9 222.2 107.95 222.17 108.01L219.04 114.74C218.98 114.87 219.06 115 219.21 115ZM221.63 112.6L222.38 110.95H222.39L223.15 112.6H221.63ZM227.25 114.81C227.25 114.91 227.34 115 227.44 115H228.64C228.74 115 228.83 114.91 228.83 114.81V109.47H230.26C230.37 109.47 230.45 109.38 230.45 109.28V108.19C230.45 108.09 230.37 108 230.26 108H225.82C225.71 108 225.63 108.09 225.63 108.19V109.28C225.63 109.38 225.71 109.47 225.82 109.47H227.25V114.81ZM230.507 115H231.607C231.807 115 231.917 114.88 231.967 114.76L232.327 113.96H235.047L235.407 114.75C235.497 114.94 235.577 115 235.757 115H236.867C237.017 115 237.097 114.87 237.037 114.74L233.907 108.01C233.877 107.95 233.807 107.9 233.737 107.9H233.637C233.567 107.9 233.497 107.95 233.467 108.01L230.337 114.74C230.277 114.87 230.357 115 230.507 115ZM232.927 112.6L233.677 110.95H233.687L234.447 112.6H232.927ZM192.54 132.78C192.52 132.91 192.61 133 192.73 133H193.91C194.01 133 194.09 132.92 194.1 132.84L194.54 129.75H194.56L196.25 132.99C196.28 133.05 196.36 133.1 196.42 133.1H196.6C196.65 133.1 196.74 133.05 196.77 132.99L198.45 129.75H198.47L198.92 132.84C198.93 132.92 199.02 133 199.11 133H200.29C200.41 133 200.5 132.91 200.48 132.78L199.35 126.06C199.34 125.97 199.25 125.9 199.17 125.9H199.01C198.96 125.9 198.87 125.94 198.84 126L196.52 130.32H196.5L194.18 126C194.15 125.94 194.06 125.9 194.01 125.9H193.85C193.77 125.9 193.68 125.97 193.67 126.06L192.54 132.78ZM201.399 129.51C201.399 131.51 202.989 133.1 204.989 133.1C206.989 133.1 208.589 131.51 208.589 129.51C208.589 127.51 206.989 125.9 204.989 125.9C202.989 125.9 201.399 127.51 201.399 129.51ZM202.999 129.51C202.999 128.41 203.899 127.5 204.989 127.5C206.089 127.5 206.989 128.41 206.989 129.51C206.989 130.6 206.089 131.5 204.989 131.5C203.899 131.5 202.999 130.6 202.999 129.51ZM209.95 132.81C209.95 132.91 210.04 133 210.14 133H211.33C211.44 133 211.52 132.91 211.52 132.81V129.08H211.53L215.48 133.05C215.5 133.07 215.58 133.1 215.61 133.1H215.77C215.87 133.1 215.96 133.02 215.96 132.92V126.19C215.96 126.09 215.87 126 215.77 126H214.57C214.46 126 214.38 126.09 214.38 126.19V129.74H214.37L210.38 125.9H210.13C210.03 125.9 209.94 125.98 209.94 126.08L209.95 132.81ZM217.834 132.81C217.834 132.91 217.924 133 218.024 133H219.224C219.324 133 219.414 132.91 219.414 132.81V126.19C219.414 126.09 219.324 126 219.224 126H218.024C217.924 126 217.834 126.09 217.834 126.19V132.81ZM222.185 132.81C222.185 132.91 222.275 133 222.375 133H223.575C223.675 133 223.765 132.91 223.765 132.81V127.47H225.195C225.305 127.47 225.385 127.38 225.385 127.28V126.19C225.385 126.09 225.305 126 225.195 126H220.755C220.645 126 220.565 126.09 220.565 126.19V127.28C220.565 127.38 220.645 127.47 220.755 127.47H222.185V132.81ZM225.984 129.51C225.984 131.51 227.574 133.1 229.574 133.1C231.574 133.1 233.174 131.51 233.174 129.51C233.174 127.51 231.574 125.9 229.574 125.9C227.574 125.9 225.984 127.51 225.984 129.51ZM227.584 129.51C227.584 128.41 228.484 127.5 229.574 127.5C230.674 127.5 231.574 128.41 231.574 129.51C231.574 130.6 230.674 131.5 229.574 131.5C228.484 131.5 227.584 130.6 227.584 129.51ZM234.534 132.81C234.534 132.91 234.614 133 234.724 133H235.914C236.014 133 236.104 132.91 236.104 132.81V130.26H236.794L238.124 132.91C238.144 132.95 238.204 133 238.284 133H239.614C239.784 133 239.854 132.84 239.784 132.71L238.414 130.17C239.284 129.82 239.894 129.08 239.894 128.16C239.894 126.97 238.914 126 237.714 126H234.724C234.614 126 234.534 126.09 234.534 126.19V132.81ZM236.104 128.99V127.43H237.584C237.994 127.43 238.344 127.77 238.344 128.19C238.344 128.61 237.994 128.99 237.584 128.99H236.104ZM241.383 132.81C241.383 132.91 241.473 133 241.573 133H242.773C242.873 133 242.963 132.91 242.963 132.81V126.19C242.963 126.09 242.873 126 242.773 126H241.573C241.473 126 241.383 126.09 241.383 126.19V132.81ZM244.834 132.81C244.834 132.91 244.924 133 245.024 133H246.214C246.324 133 246.404 132.91 246.404 132.81V129.08H246.414L250.364 133.05C250.384 133.07 250.464 133.1 250.494 133.1H250.654C250.754 133.1 250.844 133.02 250.844 132.92V126.19C250.844 126.09 250.754 126 250.654 126H249.454C249.344 126 249.264 126.09 249.264 126.19V129.74H249.254L245.264 125.9H245.014C244.914 125.9 244.824 125.98 244.824 126.08L244.834 132.81ZM252.219 129.51C252.219 131.51 253.819 133.09 255.809 133.09C257.259 133.09 258.289 132.44 258.289 132.44C258.329 132.41 258.369 132.33 258.369 132.28L258.359 129.59C258.359 129.49 258.279 129.4 258.179 129.4H256.169C256.059 129.4 255.979 129.48 255.979 129.59V130.58C255.979 130.68 256.059 130.76 256.169 130.76H256.799V131.34C256.499 131.46 256.199 131.5 255.909 131.5C254.819 131.5 253.929 130.6 253.929 129.51C253.929 128.41 254.809 127.49 255.899 127.49C256.389 127.49 256.829 127.62 257.209 127.97C257.289 128.03 257.399 128.03 257.479 127.96L258.269 127.12C258.349 127.04 258.339 126.92 258.249 126.85C257.569 126.26 256.649 125.91 255.809 125.91C253.819 125.91 252.219 127.51 252.219 129.51Z" fill="white" fill-opacity="0.87"/>
<path opacity="0.3" d="M295 79.39V84.09C295 88.09 297.55 91.79 301 92.92C304.45 91.79 307 88.1 307 84.09V79.39L301 77.14L295 79.39Z" fill="#F94432"/>
<path d="M301 75L293 78V84.09C293 89.14 296.41 93.85 301 95C305.59 93.85 309 89.14 309 84.09V78L301 75ZM307 84.09C307 88.09 304.45 91.79 301 92.92C297.55 91.79 295 88.1 295 84.09V79.39L301 77.14L307 79.39V84.09Z" fill="#F94432"/>
<path d="M276.501 114.33C276.731 114.56 277.451 115.1 278.751 115.1C280.221 115.1 281.111 114.06 281.111 113.03C281.111 111.67 279.871 111.06 279.091 110.75C278.301 110.43 278.001 110.15 278.001 109.78C278.001 109.51 278.271 109.27 278.631 109.27C279.241 109.27 279.971 109.82 280.061 109.87C280.151 109.94 280.331 109.85 280.401 109.74L280.911 108.97C280.951 108.9 280.971 108.72 280.851 108.65C280.551 108.43 279.751 107.9 278.711 107.9C277.171 107.9 276.401 108.9 276.401 109.89C276.401 111.09 277.481 111.76 278.341 112.1C279.021 112.37 279.371 112.69 279.371 113.11C279.371 113.46 279.081 113.71 278.681 113.71C278.021 113.71 277.301 113.18 277.261 113.16C277.191 113.11 277.001 113.09 276.921 113.22L276.451 114.05C276.371 114.19 276.401 114.23 276.501 114.33ZM282.479 114.81C282.479 114.91 282.559 115 282.669 115H286.809C286.919 115 286.999 114.91 286.999 114.81V113.72C286.999 113.62 286.919 113.53 286.809 113.53H284.039V112.18H286.319C286.419 112.18 286.509 112.1 286.509 111.99V110.9C286.509 110.8 286.419 110.71 286.319 110.71H284.039V109.47H286.809C286.919 109.47 286.999 109.38 286.999 109.28V108.19C286.999 108.09 286.919 108 286.809 108H282.669C282.559 108 282.479 108.09 282.479 108.19V114.81ZM287.979 111.51C287.979 113.51 289.589 115.1 291.589 115.1C292.479 115.1 293.339 114.79 294.019 114.13C294.089 114.06 294.099 113.93 294.029 113.86L293.249 113.03C293.189 112.96 293.059 112.96 292.989 113.02C292.629 113.33 292.119 113.5 291.649 113.5C290.519 113.5 289.679 112.58 289.679 111.47C289.679 110.35 290.509 109.41 291.639 109.41C292.129 109.41 292.619 109.59 292.989 109.92C293.059 109.99 293.169 109.99 293.239 109.92L294.019 109.11C294.099 109.03 294.099 108.91 294.009 108.83C293.329 108.21 292.589 107.9 291.589 107.9C289.589 107.9 287.979 109.51 287.979 111.51ZM295.267 112.32C295.267 113.84 296.537 115.1 298.107 115.1C299.687 115.1 300.967 113.84 300.967 112.32V108.19C300.967 108.09 300.877 108 300.777 108H299.547C299.437 108 299.357 108.09 299.357 108.19V112.24C299.357 112.94 298.827 113.5 298.107 113.5C297.397 113.5 296.877 112.94 296.877 112.24V108.19C296.877 108.09 296.797 108 296.687 108H295.457C295.357 108 295.267 108.09 295.267 108.19V112.32ZM302.724 114.81C302.724 114.91 302.804 115 302.914 115H304.104C304.204 115 304.294 114.91 304.294 114.81V112.26H304.984L306.314 114.91C306.334 114.95 306.394 115 306.474 115H307.804C307.974 115 308.044 114.84 307.974 114.71L306.604 112.17C307.474 111.82 308.084 111.08 308.084 110.16C308.084 108.97 307.104 108 305.904 108H302.914C302.804 108 302.724 108.09 302.724 108.19V114.81ZM304.294 110.99V109.43H305.774C306.184 109.43 306.534 109.77 306.534 110.19C306.534 110.61 306.184 110.99 305.774 110.99H304.294ZM309.573 114.81C309.573 114.91 309.663 115 309.763 115H310.963C311.063 115 311.153 114.91 311.153 114.81V108.19C311.153 108.09 311.063 108 310.963 108H309.763C309.663 108 309.573 108.09 309.573 108.19V114.81ZM313.924 114.81C313.924 114.91 314.014 115 314.114 115H315.314C315.414 115 315.504 114.91 315.504 114.81V109.47H316.934C317.044 109.47 317.124 109.38 317.124 109.28V108.19C317.124 108.09 317.044 108 316.934 108H312.494C312.384 108 312.304 108.09 312.304 108.19V109.28C312.304 109.38 312.384 109.47 312.494 109.47H313.924V114.81ZM319.904 114.81C319.904 114.91 319.984 115 320.094 115H321.284C321.384 115 321.474 114.91 321.474 114.81V111.62L323.714 108.29C323.794 108.16 323.714 108 323.554 108H322.254C322.164 108 322.124 108.05 322.094 108.09L320.704 110.14L319.314 108.09C319.284 108.05 319.234 108 319.154 108H317.854C317.694 108 317.614 108.16 317.694 108.29L319.904 111.63V114.81ZM272.759 132.33C272.989 132.56 273.709 133.1 275.009 133.1C276.479 133.1 277.369 132.06 277.369 131.03C277.369 129.67 276.129 129.06 275.349 128.75C274.559 128.43 274.259 128.15 274.259 127.78C274.259 127.51 274.529 127.27 274.889 127.27C275.499 127.27 276.229 127.82 276.319 127.87C276.409 127.94 276.589 127.85 276.659 127.74L277.169 126.97C277.209 126.9 277.229 126.72 277.109 126.65C276.809 126.43 276.009 125.9 274.969 125.9C273.429 125.9 272.659 126.9 272.659 127.89C272.659 129.09 273.739 129.76 274.599 130.1C275.279 130.37 275.629 130.69 275.629 131.11C275.629 131.46 275.339 131.71 274.939 131.71C274.279 131.71 273.559 131.18 273.519 131.16C273.449 131.11 273.259 131.09 273.179 131.22L272.709 132.05C272.629 132.19 272.659 132.23 272.759 132.33ZM279.637 132.81C279.637 132.91 279.727 133 279.827 133H281.027C281.127 133 281.217 132.91 281.217 132.81V127.47H282.647C282.757 127.47 282.837 127.38 282.837 127.28V126.19C282.837 126.09 282.757 126 282.647 126H278.207C278.097 126 278.017 126.09 278.017 126.19V127.28C278.017 127.38 278.097 127.47 278.207 127.47H279.637V132.81ZM283.985 132.81C283.985 132.91 284.065 133 284.175 133H285.365C285.465 133 285.555 132.91 285.555 132.81V130.26H286.245L287.575 132.91C287.595 132.95 287.655 133 287.735 133H289.065C289.235 133 289.305 132.84 289.235 132.71L287.865 130.17C288.735 129.82 289.345 129.08 289.345 128.16C289.345 126.97 288.365 126 287.165 126H284.175C284.065 126 283.985 126.09 283.985 126.19V132.81ZM285.555 128.99V127.43H287.035C287.445 127.43 287.795 127.77 287.795 128.19C287.795 128.61 287.445 128.99 287.035 128.99H285.555ZM290.104 133H291.204C291.404 133 291.514 132.88 291.564 132.76L291.924 131.96H294.644L295.004 132.75C295.094 132.94 295.174 133 295.354 133H296.464C296.614 133 296.694 132.87 296.634 132.74L293.504 126.01C293.474 125.95 293.404 125.9 293.334 125.9H293.234C293.164 125.9 293.094 125.95 293.064 126.01L289.934 132.74C289.874 132.87 289.954 133 290.104 133ZM292.524 130.6L293.274 128.95H293.284L294.044 130.6H292.524ZM298.144 132.81C298.144 132.91 298.234 133 298.334 133H299.534C299.634 133 299.724 132.91 299.724 132.81V127.47H301.154C301.264 127.47 301.344 127.38 301.344 127.28V126.19C301.344 126.09 301.264 126 301.154 126H296.714C296.604 126 296.524 126.09 296.524 126.19V127.28C296.524 127.38 296.604 127.47 296.714 127.47H298.144V132.81ZM302.492 132.81C302.492 132.91 302.572 133 302.682 133H306.822C306.932 133 307.012 132.91 307.012 132.81V131.72C307.012 131.62 306.932 131.53 306.822 131.53H304.052V130.18H306.332C306.432 130.18 306.522 130.1 306.522 129.99V128.9C306.522 128.8 306.432 128.71 306.332 128.71H304.052V127.47H306.822C306.932 127.47 307.012 127.38 307.012 127.28V126.19C307.012 126.09 306.932 126 306.822 126H302.682C302.572 126 302.492 126.09 302.492 126.19V132.81ZM308.001 129.51C308.001 131.51 309.601 133.09 311.591 133.09C313.041 133.09 314.071 132.44 314.071 132.44C314.111 132.41 314.151 132.33 314.151 132.28L314.141 129.59C314.141 129.49 314.061 129.4 313.961 129.4H311.951C311.841 129.4 311.761 129.48 311.761 129.59V130.58C311.761 130.68 311.841 130.76 311.951 130.76H312.581V131.34C312.281 131.46 311.981 131.5 311.691 131.5C310.601 131.5 309.711 130.6 309.711 129.51C309.711 128.41 310.591 127.49 311.681 127.49C312.171 127.49 312.611 127.62 312.991 127.97C313.071 128.03 313.181 128.03 313.261 127.96L314.051 127.12C314.131 127.04 314.121 126.92 314.031 126.85C313.351 126.26 312.431 125.91 311.591 125.91C309.601 125.91 308.001 127.51 308.001 129.51ZM315.673 132.81C315.673 132.91 315.763 133 315.863 133H317.063C317.163 133 317.253 132.91 317.253 132.81V126.19C317.253 126.09 317.163 126 317.063 126H315.863C315.763 126 315.673 126.09 315.673 126.19V132.81ZM319.123 132.81C319.123 132.91 319.203 133 319.313 133H323.453C323.563 133 323.643 132.91 323.643 132.81V131.72C323.643 131.62 323.563 131.53 323.453 131.53H320.683V130.18H322.963C323.063 130.18 323.153 130.1 323.153 129.99V128.9C323.153 128.8 323.063 128.71 322.963 128.71H320.683V127.47H323.453C323.563 127.47 323.643 127.38 323.643 127.28V126.19C323.643 126.09 323.563 126 323.453 126H319.313C319.203 126 319.123 126.09 319.123 126.19V132.81ZM324.783 132.33C325.013 132.56 325.733 133.1 327.033 133.1C328.503 133.1 329.393 132.06 329.393 131.03C329.393 129.67 328.153 129.06 327.373 128.75C326.583 128.43 326.283 128.15 326.283 127.78C326.283 127.51 326.553 127.27 326.913 127.27C327.523 127.27 328.253 127.82 328.343 127.87C328.433 127.94 328.613 127.85 328.683 127.74L329.193 126.97C329.233 126.9 329.253 126.72 329.133 126.65C328.833 126.43 328.033 125.9 326.993 125.9C325.453 125.9 324.683 126.9 324.683 127.89C324.683 129.09 325.763 129.76 326.623 130.1C327.303 130.37 327.653 130.69 327.653 131.11C327.653 131.46 327.363 131.71 326.963 131.71C326.303 131.71 325.583 131.18 325.543 131.16C325.473 131.11 325.283 131.09 325.203 131.22L324.733 132.05C324.653 132.19 324.683 132.23 324.783 132.33Z" fill="white" fill-opacity="0.87"/>
<path opacity="0.3" d="M378.21 85.04L376.68 84.93L376.38 83.43C375.88 80.86 373.62 79 371 79C368.94 79 367.08 80.14 366.12 81.96L365.62 82.91L364.55 83.02C362.53 83.24 361 84.95 361 87C361 89.21 362.79 91 365 91H378C379.65 91 381 89.65 381 88C381 86.45 379.78 85.14 378.21 85.04ZM372.45 86V89H369.54V86H367L371 82L375 86H372.45Z" fill="#F94432"/>
<path d="M378.35 83.04C377.67 79.59 374.64 77 371 77C368.11 77 365.6 78.64 364.35 81.04C361.34 81.36 359 83.91 359 87C359 90.31 361.69 93 365 93H378C380.76 93 383 90.76 383 88C383 85.36 380.95 83.22 378.35 83.04ZM378 91H365C362.79 91 361 89.21 361 87C361 84.95 362.53 83.24 364.56 83.03L365.63 82.92L366.13 81.97C367.08 80.14 368.94 79 371 79C373.62 79 375.88 80.86 376.39 83.43L376.69 84.93L378.22 85.04C379.78 85.14 381 86.45 381 88C381 89.65 379.65 91 378 91ZM367 86H369.55V89H372.45V86H375L371 82L367 86Z" fill="#F94432"/>
<path d="M343.604 111.51C343.604 113.51 345.194 115.1 347.194 115.1C349.194 115.1 350.794 113.51 350.794 111.51C350.794 109.51 349.194 107.9 347.194 107.9C345.194 107.9 343.604 109.51 343.604 111.51ZM345.204 111.51C345.204 110.41 346.104 109.5 347.194 109.5C348.294 109.5 349.194 110.41 349.194 111.51C349.194 112.6 348.294 113.5 347.194 113.5C346.104 113.5 345.204 112.6 345.204 111.51ZM352.155 114.81C352.155 114.91 352.245 115 352.345 115H353.535C353.645 115 353.725 114.91 353.725 114.81V111.08H353.735L357.685 115.05C357.705 115.07 357.785 115.1 357.815 115.1H357.975C358.075 115.1 358.165 115.02 358.165 114.92V108.19C358.165 108.09 358.075 108 357.975 108H356.775C356.665 108 356.585 108.09 356.585 108.19V111.74H356.575L352.585 107.9H352.335C352.235 107.9 352.145 107.98 352.145 108.08L352.155 114.81ZM359.644 113.22H361.934C362.044 113.22 362.124 113.14 362.124 113.04V112.13C362.124 112.02 362.044 111.94 361.934 111.94H359.644C359.534 111.94 359.454 112.02 359.454 112.13V113.04C359.454 113.14 359.534 113.22 359.644 113.22ZM363.029 111.51C363.029 113.51 364.639 115.1 366.639 115.1C367.529 115.1 368.389 114.79 369.069 114.13C369.139 114.06 369.149 113.93 369.079 113.86L368.299 113.03C368.239 112.96 368.109 112.96 368.039 113.02C367.679 113.33 367.169 113.5 366.699 113.5C365.569 113.5 364.729 112.58 364.729 111.47C364.729 110.35 365.559 109.41 366.689 109.41C367.179 109.41 367.669 109.59 368.039 109.92C368.109 109.99 368.219 109.99 368.289 109.92L369.069 109.11C369.149 109.03 369.149 108.91 369.059 108.83C368.379 108.21 367.639 107.9 366.639 107.9C364.639 107.9 363.029 109.51 363.029 111.51ZM370.418 114.81C370.418 114.91 370.508 115 370.608 115H371.798C371.908 115 371.988 114.91 371.988 114.81V112.18H374.848V114.81C374.848 114.91 374.928 115 375.038 115H376.228C376.328 115 376.418 114.91 376.418 114.81V108.19C376.418 108.09 376.328 108 376.228 108H375.038C374.928 108 374.848 108.09 374.848 108.19V110.71H371.988V108.19C371.988 108.09 371.908 108 371.798 108H370.608C370.508 108 370.418 108.09 370.418 108.19V114.81ZM377.562 115H378.662C378.862 115 378.972 114.88 379.022 114.76L379.382 113.96H382.102L382.462 114.75C382.552 114.94 382.632 115 382.812 115H383.922C384.072 115 384.152 114.87 384.092 114.74L380.962 108.01C380.932 107.95 380.862 107.9 380.792 107.9H380.692C380.622 107.9 380.552 107.95 380.522 108.01L377.392 114.74C377.332 114.87 377.412 115 377.562 115ZM379.982 112.6L380.732 110.95H380.742L381.502 112.6H379.982ZM385.063 114.81C385.063 114.91 385.153 115 385.253 115H386.453C386.553 115 386.643 114.91 386.643 114.81V108.19C386.643 108.09 386.553 108 386.453 108H385.253C385.153 108 385.063 108.09 385.063 108.19V114.81ZM388.514 114.81C388.514 114.91 388.604 115 388.704 115H389.894C390.004 115 390.084 114.91 390.084 114.81V111.08H390.094L394.044 115.05C394.064 115.07 394.144 115.1 394.174 115.1H394.334C394.434 115.1 394.524 115.02 394.524 114.92V108.19C394.524 108.09 394.434 108 394.334 108H393.134C393.024 108 392.944 108.09 392.944 108.19V111.74H392.934L388.944 107.9H388.694C388.594 107.9 388.504 107.98 388.504 108.08L388.514 114.81ZM351.051 129.51C351.051 131.51 352.641 133.1 354.641 133.1C356.641 133.1 358.241 131.51 358.241 129.51C358.241 127.51 356.641 125.9 354.641 125.9C352.641 125.9 351.051 127.51 351.051 129.51ZM352.651 129.51C352.651 128.41 353.551 127.5 354.641 127.5C355.741 127.5 356.641 128.41 356.641 129.51C356.641 130.6 355.741 131.5 354.641 131.5C353.551 131.5 352.651 130.6 352.651 129.51ZM359.602 132.81C359.602 132.91 359.682 133 359.792 133H360.982C361.082 133 361.172 132.91 361.172 132.81V130.26H361.862L363.192 132.91C363.212 132.95 363.272 133 363.352 133H364.682C364.852 133 364.922 132.84 364.852 132.71L363.482 130.17C364.352 129.82 364.962 129.08 364.962 128.16C364.962 126.97 363.982 126 362.782 126H359.792C359.682 126 359.602 126.09 359.602 126.19V132.81ZM361.172 128.99V127.43H362.652C363.062 127.43 363.412 127.77 363.412 128.19C363.412 128.61 363.062 128.99 362.652 128.99H361.172ZM365.721 133H366.821C367.021 133 367.131 132.88 367.181 132.76L367.541 131.96H370.261L370.621 132.75C370.711 132.94 370.791 133 370.971 133H372.081C372.231 133 372.311 132.87 372.251 132.74L369.121 126.01C369.091 125.95 369.021 125.9 368.951 125.9H368.851C368.781 125.9 368.711 125.95 368.681 126.01L365.551 132.74C365.491 132.87 365.571 133 365.721 133ZM368.141 130.6L368.891 128.95H368.901L369.661 130.6H368.141ZM372.654 129.51C372.654 131.51 374.264 133.1 376.264 133.1C377.154 133.1 378.014 132.79 378.694 132.13C378.764 132.06 378.774 131.93 378.704 131.86L377.924 131.03C377.864 130.96 377.734 130.96 377.664 131.02C377.304 131.33 376.794 131.5 376.324 131.5C375.194 131.5 374.354 130.58 374.354 129.47C374.354 128.35 375.184 127.41 376.314 127.41C376.804 127.41 377.294 127.59 377.664 127.92C377.734 127.99 377.844 127.99 377.914 127.92L378.694 127.11C378.774 127.03 378.774 126.91 378.684 126.83C378.004 126.21 377.264 125.9 376.264 125.9C374.264 125.9 372.654 127.51 372.654 129.51ZM380.042 132.81C380.042 132.91 380.122 133 380.232 133H383.992C384.102 133 384.182 132.91 384.182 132.81V131.72C384.182 131.62 384.102 131.53 383.992 131.53H381.612V126.19C381.612 126.09 381.522 126 381.422 126H380.232C380.122 126 380.042 126.09 380.042 126.19V132.81ZM385.299 132.81C385.299 132.91 385.379 133 385.489 133H389.629C389.739 133 389.819 132.91 389.819 132.81V131.72C389.819 131.62 389.739 131.53 389.629 131.53H386.859V130.18H389.139C389.239 130.18 389.329 130.1 389.329 129.99V128.9C389.329 128.8 389.239 128.71 389.139 128.71H386.859V127.47H389.629C389.739 127.47 389.819 127.38 389.819 127.28V126.19C389.819 126.09 389.739 126 389.629 126H385.489C385.379 126 385.299 126.09 385.299 126.19V132.81Z" fill="white" fill-opacity="0.87"/>
<path d="M263.132 0.82083C263.102 0.758687 263.087 0.68972 263.09 0.62042C263.093 0.551119 263.114 0.483761 263.151 0.424679C263.187 0.365597 263.238 0.316736 263.298 0.282687C263.359 0.248638 263.427 0.230521 263.496 0.230042H266.405C266.486 0.23168 266.566 0.253243 266.637 0.29285C266.709 0.332456 266.769 0.388904 266.814 0.457269L270.449 8.54652L274.085 0.457269C274.122 0.392403 274.175 0.337725 274.238 0.298087C274.301 0.25845 274.374 0.235077 274.448 0.230042H277.402C277.472 0.230521 277.54 0.248638 277.6 0.282687C277.661 0.316736 277.711 0.365597 277.748 0.424679C277.784 0.483761 277.805 0.551119 277.808 0.62042C277.811 0.68972 277.797 0.758687 277.766 0.82083L271.176 15.6814C271.112 15.7103 271.042 15.7252 270.972 15.7252C270.901 15.7252 270.832 15.7103 270.767 15.6814H270.54C270.483 15.7065 270.421 15.7194 270.358 15.7194C270.296 15.7194 270.234 15.7065 270.176 15.6814L263.132 0.82083Z" fill="white"/>
<path d="M281.311 0.639055C281.322 0.526568 281.375 0.422332 281.459 0.346703C281.543 0.271074 281.652 0.229481 281.765 0.230047H284.401C284.509 0.230047 284.613 0.273139 284.69 0.349843C284.767 0.426547 284.81 0.53058 284.81 0.639055V15.2724C284.81 15.3809 284.767 15.4849 284.69 15.5616C284.613 15.6383 284.509 15.6814 284.401 15.6814H281.765C281.652 15.682 281.543 15.6404 281.459 15.5648C281.375 15.4891 281.322 15.3849 281.311 15.2724V0.639055Z" fill="white"/>
<path d="M289.809 0.411819C289.82 0.299332 289.873 0.195096 289.957 0.119467C290.041 0.043838 290.15 0.00224678 290.263 0.00281333H290.808L299.488 8.50108V0.639046C299.488 0.581287 299.5 0.524107 299.523 0.471271C299.547 0.418434 299.581 0.37114 299.624 0.332501C299.667 0.293861 299.717 0.264753 299.772 0.247093C299.827 0.229432 299.885 0.223619 299.943 0.230038H302.579C302.687 0.230038 302.791 0.273131 302.868 0.349834C302.945 0.426538 302.988 0.530571 302.988 0.639046V15.4996C302.988 15.6081 302.945 15.7122 302.868 15.7889C302.791 15.8656 302.687 15.9087 302.579 15.9087H302.215H301.942L293.353 7.04683V15.2724C293.353 15.3809 293.31 15.4849 293.234 15.5616C293.157 15.6383 293.053 15.6814 292.944 15.6814H290.399C290.291 15.6814 290.187 15.6383 290.11 15.5616C290.033 15.4849 289.99 15.3809 289.99 15.2724L289.809 0.411819Z" fill="white"/>
<path d="M315.122 0.00280517C316.099 -0.0240997 317.072 0.142755 317.985 0.493747C318.897 0.84474 319.731 1.37292 320.439 2.04784C320.486 2.08618 320.525 2.13465 320.551 2.18969C320.577 2.24473 320.591 2.30496 320.591 2.36596C320.591 2.42696 320.577 2.48718 320.551 2.54222C320.525 2.59727 320.486 2.64573 320.439 2.68407L318.712 4.45644C318.678 4.49512 318.636 4.52611 318.589 4.54733C318.542 4.56855 318.491 4.57953 318.439 4.57953C318.388 4.57953 318.337 4.56855 318.29 4.54733C318.243 4.52611 318.201 4.49512 318.167 4.45644C317.343 3.75247 316.296 3.36567 315.213 3.36575C314.047 3.4241 312.949 3.92853 312.145 4.77456C311.341 5.62058 310.894 6.74335 310.895 7.91028C310.895 9.11556 311.374 10.2715 312.226 11.1237C313.079 11.976 314.235 12.4548 315.44 12.4548C316.514 12.4488 317.555 12.0806 318.394 11.4096C318.469 11.3425 318.566 11.3054 318.666 11.3054C318.767 11.3054 318.864 11.3425 318.939 11.4096L320.666 13.2728C320.706 13.311 320.738 13.3569 320.759 13.4076C320.781 13.4584 320.792 13.513 320.792 13.5682C320.792 13.6234 320.781 13.678 320.759 13.7288C320.738 13.7796 320.706 13.8254 320.666 13.8636C319.23 15.2541 317.303 16.0217 315.304 15.9995C314.259 15.9995 313.225 15.7938 312.26 15.3942C311.295 14.9945 310.418 14.4087 309.68 13.6702C308.941 12.9317 308.356 12.055 307.956 11.0901C307.556 10.1252 307.351 9.09101 307.351 8.04662C307.351 7.00222 307.556 5.96806 307.956 5.00316C308.356 4.03827 308.941 3.16155 309.68 2.42305C310.418 1.68455 311.295 1.09875 312.26 0.699075C313.225 0.299403 314.259 0.0936956 315.304 0.0936956L315.122 0.00280517Z" fill="white"/>
<path d="M324.438 0.639055C324.449 0.526568 324.502 0.422332 324.586 0.346703C324.67 0.271074 324.779 0.229481 324.892 0.230047H327.528C327.636 0.230047 327.74 0.273139 327.817 0.349843C327.894 0.426547 327.937 0.53058 327.937 0.639055V15.2724C327.937 15.3809 327.894 15.4849 327.817 15.5616C327.74 15.6383 327.636 15.6814 327.528 15.6814H324.892C324.779 15.682 324.67 15.6404 324.586 15.5648C324.502 15.4891 324.449 15.3849 324.438 15.2724V0.639055Z" fill="white"/>
<path d="M259.906 4.00192L255.362 11.7731L254.044 9.81891L258.588 2.04777L257.452 0.0936279H248.363L247.272 2.04777H256.361L255.225 4.00192H246.136L245 5.95607L250.862 15.6813H253.135L247.499 5.95607H249.772L254.316 13.7272L255.407 15.6813L261.042 5.95607L259.906 4.00192ZM253.089 7.91021L251.999 6.00151H254.044L253.089 7.91021Z" fill="#F94432"/>
<rect x="492.5" y="46.5" width="99" height="24" rx="4.5" fill="#1C0200" stroke="white"/>
<path d="M522.86 60.81C522.86 60.91 522.94 61 523.05 61H526.81C526.92 61 527 60.91 527 60.81V59.72C527 59.62 526.92 59.53 526.81 59.53H524.43V54.19C524.43 54.09 524.34 54 524.24 54H523.05C522.94 54 522.86 54.09 522.86 54.19V60.81ZM528.117 60.81C528.117 60.91 528.197 61 528.307 61H532.447C532.557 61 532.637 60.91 532.637 60.81V59.72C532.637 59.62 532.557 59.53 532.447 59.53H529.677V58.18H531.957C532.057 58.18 532.147 58.1 532.147 57.99V56.9C532.147 56.8 532.057 56.71 531.957 56.71H529.677V55.47H532.447C532.557 55.47 532.637 55.38 532.637 55.28V54.19C532.637 54.09 532.557 54 532.447 54H528.307C528.197 54 528.117 54.09 528.117 54.19V60.81ZM534.127 60.81C534.127 60.91 534.217 61 534.317 61H535.507C535.617 61 535.697 60.91 535.697 60.81V57.08H535.707L539.657 61.05C539.677 61.07 539.757 61.1 539.787 61.1H539.947C540.047 61.1 540.137 61.02 540.137 60.92V54.19C540.137 54.09 540.047 54 539.947 54H538.747C538.637 54 538.557 54.09 538.557 54.19V57.74H538.547L534.557 53.9H534.307C534.207 53.9 534.117 53.98 534.117 54.08L534.127 60.81ZM542.011 60.81C542.011 60.91 542.091 61 542.191 61H544.631C546.561 61 548.141 59.43 548.141 57.49C548.141 55.57 546.561 54 544.631 54H542.191C542.091 54 542.011 54.09 542.011 54.19V60.81ZM543.571 59.52V55.47H544.531C545.661 55.47 546.481 56.36 546.481 57.49C546.481 58.63 545.661 59.52 544.531 59.52H543.571ZM549.515 60.81C549.515 60.91 549.605 61 549.705 61H550.905C551.005 61 551.095 60.91 551.095 60.81V54.19C551.095 54.09 551.005 54 550.905 54H549.705C549.605 54 549.515 54.09 549.515 54.19V60.81ZM552.965 60.81C552.965 60.91 553.055 61 553.155 61H554.345C554.455 61 554.535 60.91 554.535 60.81V57.08H554.545L558.495 61.05C558.515 61.07 558.595 61.1 558.625 61.1H558.785C558.885 61.1 558.975 61.02 558.975 60.92V54.19C558.975 54.09 558.885 54 558.785 54H557.585C557.475 54 557.395 54.09 557.395 54.19V57.74H557.385L553.395 53.9H553.145C553.045 53.9 552.955 53.98 552.955 54.08L552.965 60.81ZM560.35 57.51C560.35 59.51 561.95 61.09 563.94 61.09C565.39 61.09 566.42 60.44 566.42 60.44C566.46 60.41 566.5 60.33 566.5 60.28L566.49 57.59C566.49 57.49 566.41 57.4 566.31 57.4H564.3C564.19 57.4 564.11 57.48 564.11 57.59V58.58C564.11 58.68 564.19 58.76 564.3 58.76H564.93V59.34C564.63 59.46 564.33 59.5 564.04 59.5C562.95 59.5 562.06 58.6 562.06 57.51C562.06 56.41 562.94 55.49 564.03 55.49C564.52 55.49 564.96 55.62 565.34 55.97C565.42 56.03 565.53 56.03 565.61 55.96L566.4 55.12C566.48 55.04 566.47 54.92 566.38 54.85C565.7 54.26 564.78 53.91 563.94 53.91C561.95 53.91 560.35 55.51 560.35 57.51Z" fill="white" fill-opacity="0.87"/>
<rect x="492.5" y="77.5" width="99" height="24" rx="4.5" fill="#1C0200" stroke="white"/>
<path d="M523.86 94.81C523.86 94.91 523.94 95 524.05 95H527.81C527.92 95 528 94.91 528 94.81V93.72C528 93.62 527.92 93.53 527.81 93.53H525.43V88.19C525.43 88.09 525.34 88 525.24 88H524.05C523.94 88 523.86 88.09 523.86 88.19V94.81ZM529.117 94.81C529.117 94.91 529.197 95 529.307 95H533.447C533.557 95 533.637 94.91 533.637 94.81V93.72C533.637 93.62 533.557 93.53 533.447 93.53H530.677V92.18H532.957C533.057 92.18 533.147 92.1 533.147 91.99V90.9C533.147 90.8 533.057 90.71 532.957 90.71H530.677V89.47H533.447C533.557 89.47 533.637 89.38 533.637 89.28V88.19C533.637 88.09 533.557 88 533.447 88H529.307C529.197 88 529.117 88.09 529.117 88.19V94.81ZM534.397 95H535.497C535.697 95 535.807 94.88 535.857 94.76L536.217 93.96H538.937L539.297 94.75C539.387 94.94 539.467 95 539.647 95H540.757C540.907 95 540.987 94.87 540.927 94.74L537.797 88.01C537.767 87.95 537.697 87.9 537.627 87.9H537.527C537.457 87.9 537.387 87.95 537.357 88.01L534.227 94.74C534.167 94.87 534.247 95 534.397 95ZM536.817 92.6L537.567 90.95H537.577L538.337 92.6H536.817ZM541.548 94.33C541.778 94.56 542.498 95.1 543.798 95.1C545.268 95.1 546.158 94.06 546.158 93.03C546.158 91.67 544.918 91.06 544.138 90.75C543.348 90.43 543.048 90.15 543.048 89.78C543.048 89.51 543.318 89.27 543.678 89.27C544.288 89.27 545.018 89.82 545.108 89.87C545.198 89.94 545.378 89.85 545.448 89.74L545.958 88.97C545.998 88.9 546.018 88.72 545.898 88.65C545.598 88.43 544.798 87.9 543.758 87.9C542.218 87.9 541.448 88.9 541.448 89.89C541.448 91.09 542.528 91.76 543.388 92.1C544.068 92.37 544.418 92.69 544.418 93.11C544.418 93.46 544.128 93.71 543.728 93.71C543.068 93.71 542.348 93.18 542.308 93.16C542.238 93.11 542.048 93.09 541.968 93.22L541.498 94.05C541.418 94.19 541.448 94.23 541.548 94.33ZM547.526 94.81C547.526 94.91 547.616 95 547.716 95H548.916C549.016 95 549.106 94.91 549.106 94.81V88.19C549.106 88.09 549.016 88 548.916 88H547.716C547.616 88 547.526 88.09 547.526 88.19V94.81ZM550.977 94.81C550.977 94.91 551.067 95 551.167 95H552.357C552.467 95 552.547 94.91 552.547 94.81V91.08H552.557L556.507 95.05C556.527 95.07 556.607 95.1 556.637 95.1H556.797C556.897 95.1 556.987 95.02 556.987 94.92V88.19C556.987 88.09 556.897 88 556.797 88H555.597C555.487 88 555.407 88.09 555.407 88.19V91.74H555.397L551.407 87.9H551.157C551.057 87.9 550.967 87.98 550.967 88.08L550.977 94.81ZM558.362 91.51C558.362 93.51 559.962 95.09 561.952 95.09C563.402 95.09 564.432 94.44 564.432 94.44C564.472 94.41 564.512 94.33 564.512 94.28L564.502 91.59C564.502 91.49 564.422 91.4 564.322 91.4H562.312C562.202 91.4 562.122 91.48 562.122 91.59V92.58C562.122 92.68 562.202 92.76 562.312 92.76H562.942V93.34C562.642 93.46 562.342 93.5 562.052 93.5C560.962 93.5 560.072 92.6 560.072 91.51C560.072 90.41 560.952 89.49 562.042 89.49C562.532 89.49 562.972 89.62 563.352 89.97C563.432 90.03 563.542 90.03 563.622 89.96L564.412 89.12C564.492 89.04 564.482 88.92 564.392 88.85C563.712 88.26 562.792 87.91 561.952 87.91C559.962 87.91 558.362 89.51 558.362 91.51Z" fill="white" fill-opacity="0.87"/>
<rect x="492.5" y="108.5" width="99" height="24" rx="4.5" fill="#1C0200" stroke="white"/>
<path d="M513.86 124.81C513.86 124.91 513.94 125 514.04 125H516.48C518.41 125 519.99 123.43 519.99 121.49C519.99 119.57 518.41 118 516.48 118H514.04C513.94 118 513.86 118.09 513.86 118.19V124.81ZM515.42 123.52V119.47H516.38C517.51 119.47 518.33 120.36 518.33 121.49C518.33 122.63 517.51 123.52 516.38 123.52H515.42ZM521.364 124.81C521.364 124.91 521.444 125 521.554 125H525.694C525.804 125 525.884 124.91 525.884 124.81V123.72C525.884 123.62 525.804 123.53 525.694 123.53H522.924V122.18H525.204C525.304 122.18 525.394 122.1 525.394 121.99V120.9C525.394 120.8 525.304 120.71 525.204 120.71H522.924V119.47H525.694C525.804 119.47 525.884 119.38 525.884 119.28V118.19C525.884 118.09 525.804 118 525.694 118H521.554C521.444 118 521.364 118.09 521.364 118.19V124.81ZM527.373 124.81C527.373 124.91 527.453 125 527.563 125H528.753C528.853 125 528.943 124.91 528.943 124.81V122.26H529.633L530.963 124.91C530.983 124.95 531.043 125 531.123 125H532.453C532.623 125 532.693 124.84 532.623 124.71L531.253 122.17C532.123 121.82 532.733 121.08 532.733 120.16C532.733 118.97 531.753 118 530.553 118H527.563C527.453 118 527.373 118.09 527.373 118.19V124.81ZM528.943 120.99V119.43H530.423C530.833 119.43 531.183 119.77 531.183 120.19C531.183 120.61 530.833 120.99 530.423 120.99H528.943ZM534.222 124.81C534.222 124.91 534.312 125 534.412 125H535.612C535.712 125 535.802 124.91 535.802 124.81V118.19C535.802 118.09 535.712 118 535.612 118H534.412C534.312 118 534.222 118.09 534.222 118.19V124.81ZM539.893 124.99C539.923 125.05 539.983 125.1 540.063 125.1H540.163C540.243 125.1 540.303 125.05 540.333 124.99L543.473 118.26C543.533 118.13 543.453 118 543.303 118H541.973C541.893 118 541.823 118.06 541.803 118.11L540.153 121.76H540.093L538.443 118.11C538.423 118.06 538.353 118 538.273 118H536.943C536.793 118 536.713 118.13 536.773 118.26L539.893 124.99ZM543.157 125H544.257C544.457 125 544.567 124.88 544.617 124.76L544.977 123.96H547.697L548.057 124.75C548.147 124.94 548.227 125 548.407 125H549.517C549.667 125 549.747 124.87 549.687 124.74L546.557 118.01C546.527 117.95 546.457 117.9 546.387 117.9H546.287C546.217 117.9 546.147 117.95 546.117 118.01L542.987 124.74C542.927 124.87 543.007 125 543.157 125ZM545.577 122.6L546.327 120.95H546.337L547.097 122.6H545.577ZM551.197 124.81C551.197 124.91 551.287 125 551.387 125H552.587C552.687 125 552.777 124.91 552.777 124.81V119.47H554.207C554.317 119.47 554.397 119.38 554.397 119.28V118.19C554.397 118.09 554.317 118 554.207 118H549.767C549.657 118 549.577 118.09 549.577 118.19V119.28C549.577 119.38 549.657 119.47 549.767 119.47H551.197V124.81ZM555.545 124.81C555.545 124.91 555.635 125 555.735 125H556.935C557.035 125 557.125 124.91 557.125 124.81V118.19C557.125 118.09 557.035 118 556.935 118H555.735C555.635 118 555.545 118.09 555.545 118.19V124.81ZM561.216 124.99C561.246 125.05 561.306 125.1 561.386 125.1H561.486C561.566 125.1 561.626 125.05 561.656 124.99L564.796 118.26C564.856 118.13 564.776 118 564.626 118H563.296C563.216 118 563.146 118.06 563.126 118.11L561.476 121.76H561.416L559.766 118.11C559.746 118.06 559.676 118 559.596 118H558.266C558.116 118 558.036 118.13 558.096 118.26L561.216 124.99ZM565.767 124.81C565.767 124.91 565.847 125 565.957 125H570.097C570.207 125 570.287 124.91 570.287 124.81V123.72C570.287 123.62 570.207 123.53 570.097 123.53H567.327V122.18H569.607C569.707 122.18 569.797 122.1 569.797 121.99V120.9C569.797 120.8 569.707 120.71 569.607 120.71H567.327V119.47H570.097C570.207 119.47 570.287 119.38 570.287 119.28V118.19C570.287 118.09 570.207 118 570.097 118H565.957C565.847 118 565.767 118.09 565.767 118.19V124.81ZM571.426 124.33C571.656 124.56 572.376 125.1 573.676 125.1C575.146 125.1 576.036 124.06 576.036 123.03C576.036 121.67 574.796 121.06 574.016 120.75C573.226 120.43 572.926 120.15 572.926 119.78C572.926 119.51 573.196 119.27 573.556 119.27C574.166 119.27 574.896 119.82 574.986 119.87C575.076 119.94 575.256 119.85 575.326 119.74L575.836 118.97C575.876 118.9 575.896 118.72 575.776 118.65C575.476 118.43 574.676 117.9 573.636 117.9C572.096 117.9 571.326 118.9 571.326 119.89C571.326 121.09 572.406 121.76 573.266 122.1C573.946 122.37 574.296 122.69 574.296 123.11C574.296 123.46 574.006 123.71 573.606 123.71C572.946 123.71 572.226 123.18 572.186 123.16C572.116 123.11 571.926 123.09 571.846 123.22L571.376 124.05C571.296 124.19 571.326 124.23 571.426 124.33Z" fill="white" fill-opacity="0.87"/>
<rect x="492.5" y="139.5" width="99" height="24" rx="4.5" fill="#1C0200" stroke="white"/>
<path d="M513.86 154.81C513.86 154.91 513.94 155 514.05 155H515.23C515.33 155 515.42 154.91 515.42 154.81V152.38H517.7C517.8 152.38 517.89 152.29 517.89 152.19V151.1C517.89 151 517.8 150.91 517.7 150.91H515.42V149.47H518.19C518.3 149.47 518.38 149.38 518.38 149.28V148.19C518.38 148.09 518.3 148 518.19 148H514.05C513.94 148 513.86 148.09 513.86 148.19V154.81ZM519.645 154.81C519.645 154.91 519.725 155 519.835 155H521.025C521.125 155 521.215 154.91 521.215 154.81V152.26H521.905L523.235 154.91C523.255 154.95 523.315 155 523.395 155H524.725C524.895 155 524.965 154.84 524.895 154.71L523.525 152.17C524.395 151.82 525.005 151.08 525.005 150.16C525.005 148.97 524.025 148 522.825 148H519.835C519.725 148 519.645 148.09 519.645 148.19V154.81ZM521.215 150.99V149.43H522.695C523.105 149.43 523.455 149.77 523.455 150.19C523.455 150.61 523.105 150.99 522.695 150.99H521.215ZM525.764 155H526.864C527.064 155 527.174 154.88 527.224 154.76L527.584 153.96H530.304L530.664 154.75C530.754 154.94 530.834 155 531.014 155H532.124C532.274 155 532.354 154.87 532.294 154.74L529.164 148.01C529.134 147.95 529.064 147.9 528.994 147.9H528.894C528.824 147.9 528.754 147.95 528.724 148.01L525.594 154.74C525.534 154.87 525.614 155 525.764 155ZM528.184 152.6L528.934 150.95H528.944L529.704 152.6H528.184ZM532.696 151.51C532.696 153.51 534.306 155.1 536.306 155.1C537.196 155.1 538.056 154.79 538.736 154.13C538.806 154.06 538.816 153.93 538.746 153.86L537.966 153.03C537.906 152.96 537.776 152.96 537.706 153.02C537.346 153.33 536.836 153.5 536.366 153.5C535.236 153.5 534.396 152.58 534.396 151.47C534.396 150.35 535.226 149.41 536.356 149.41C536.846 149.41 537.336 149.59 537.706 149.92C537.776 149.99 537.886 149.99 537.956 149.92L538.736 149.11C538.816 149.03 538.816 148.91 538.726 148.83C538.046 148.21 537.306 147.9 536.306 147.9C534.306 147.9 532.696 149.51 532.696 151.51ZM540.985 154.81C540.985 154.91 541.075 155 541.175 155H542.375C542.475 155 542.565 154.91 542.565 154.81V149.47H543.995C544.105 149.47 544.185 149.38 544.185 149.28V148.19C544.185 148.09 544.105 148 543.995 148H539.555C539.445 148 539.365 148.09 539.365 148.19V149.28C539.365 149.38 539.445 149.47 539.555 149.47H540.985V154.81ZM545.333 154.81C545.333 154.91 545.423 155 545.523 155H546.723C546.823 155 546.913 154.91 546.913 154.81V148.19C546.913 148.09 546.823 148 546.723 148H545.523C545.423 148 545.333 148.09 545.333 148.19V154.81ZM548.273 151.51C548.273 153.51 549.863 155.1 551.863 155.1C553.863 155.1 555.463 153.51 555.463 151.51C555.463 149.51 553.863 147.9 551.863 147.9C549.863 147.9 548.273 149.51 548.273 151.51ZM549.873 151.51C549.873 150.41 550.773 149.5 551.863 149.5C552.963 149.5 553.863 150.41 553.863 151.51C553.863 152.6 552.963 153.5 551.863 153.5C550.773 153.5 549.873 152.6 549.873 151.51ZM556.824 154.81C556.824 154.91 556.914 155 557.014 155H558.204C558.314 155 558.394 154.91 558.394 154.81V151.08H558.404L562.354 155.05C562.374 155.07 562.454 155.1 562.484 155.1H562.644C562.744 155.1 562.834 155.02 562.834 154.92V148.19C562.834 148.09 562.744 148 562.644 148H561.444C561.334 148 561.254 148.09 561.254 148.19V151.74H561.244L557.254 147.9H557.004C556.904 147.9 556.814 147.98 556.814 148.08L556.824 154.81ZM563.978 155H565.078C565.278 155 565.388 154.88 565.438 154.76L565.798 153.96H568.518L568.878 154.75C568.968 154.94 569.048 155 569.228 155H570.338C570.488 155 570.568 154.87 570.508 154.74L567.378 148.01C567.348 147.95 567.278 147.9 567.208 147.9H567.108C567.038 147.9 566.968 147.95 566.938 148.01L563.808 154.74C563.748 154.87 563.828 155 563.978 155ZM566.398 152.6L567.148 150.95H567.158L567.918 152.6H566.398ZM571.48 154.81C571.48 154.91 571.56 155 571.67 155H575.43C575.54 155 575.62 154.91 575.62 154.81V153.72C575.62 153.62 575.54 153.53 575.43 153.53H573.05V148.19C573.05 148.09 572.96 148 572.86 148H571.67C571.56 148 571.48 148.09 571.48 148.19V154.81Z" fill="white" fill-opacity="0.87"/>
<path d="M482.483 12.734C482.483 12.874 482.609 13 482.749 13H484.415C484.569 13 484.681 12.874 484.681 12.734V7.512H484.695L490.225 13.07C490.253 13.098 490.365 13.14 490.407 13.14H490.631C490.771 13.14 490.897 13.028 490.897 12.888V3.466C490.897 3.326 490.771 3.2 490.631 3.2H488.951C488.797 3.2 488.685 3.326 488.685 3.466V8.436H488.671L483.085 3.06H482.735C482.595 3.06 482.469 3.172 482.469 3.312L482.483 12.734ZM493.461 12.734C493.461 12.874 493.573 13 493.727 13H495.379C495.519 13 495.645 12.874 495.645 12.734V9.332H498.837C498.977 9.332 499.103 9.206 499.103 9.066V7.54C499.103 7.4 498.977 7.274 498.837 7.274H495.645V5.258H499.523C499.677 5.258 499.789 5.132 499.789 4.992V3.466C499.789 3.326 499.677 3.2 499.523 3.2H493.727C493.573 3.2 493.461 3.326 493.461 3.466V12.734ZM502.76 12.734C502.76 12.874 502.886 13 503.026 13H504.706C504.846 13 504.972 12.874 504.972 12.734V5.258H506.974C507.128 5.258 507.24 5.132 507.24 4.992V3.466C507.24 3.326 507.128 3.2 506.974 3.2H500.758C500.604 3.2 500.492 3.326 500.492 3.466V4.992C500.492 5.132 500.604 5.258 500.758 5.258H502.76V12.734ZM507.864 10.508H511.07C511.224 10.508 511.336 10.396 511.336 10.256V8.982C511.336 8.828 511.224 8.716 511.07 8.716H507.864C507.71 8.716 507.598 8.828 507.598 8.982V10.256C507.598 10.396 507.71 10.508 507.864 10.508ZM513.079 12.734C513.079 12.874 513.191 13 513.345 13H516.817C518.483 13 519.869 11.866 519.869 10.298C519.869 9.01 518.735 8.324 517.993 8.016C518.651 7.666 519.617 6.882 519.617 5.804C519.617 4.334 518.259 3.2 516.607 3.2H513.345C513.191 3.2 513.079 3.326 513.079 3.466V12.734ZM515.263 7.176V5.216H516.355C516.887 5.216 517.335 5.608 517.335 6.168C517.335 6.728 516.887 7.176 516.355 7.176H515.263ZM515.263 10.998V8.996H516.397C516.943 8.996 517.545 9.416 517.545 9.976C517.545 10.55 517.083 10.998 516.537 10.998H515.263ZM520.78 13H522.32C522.6 13 522.754 12.832 522.824 12.664L523.328 11.544H527.136L527.64 12.65C527.766 12.916 527.878 13 528.13 13H529.684C529.894 13 530.006 12.818 529.922 12.636L525.54 3.214C525.498 3.13 525.4 3.06 525.302 3.06H525.162C525.064 3.06 524.966 3.13 524.924 3.214L520.542 12.636C520.458 12.818 520.57 13 520.78 13ZM524.168 9.64L525.218 7.33H525.232L526.296 9.64H524.168ZM530.425 8.114C530.425 10.914 532.679 13.14 535.479 13.14C536.725 13.14 537.929 12.706 538.881 11.782C538.979 11.684 538.993 11.502 538.895 11.404L537.803 10.242C537.719 10.144 537.537 10.144 537.439 10.228C536.935 10.662 536.221 10.9 535.563 10.9C533.981 10.9 532.805 9.612 532.805 8.058C532.805 6.49 533.967 5.174 535.549 5.174C536.235 5.174 536.921 5.426 537.439 5.888C537.537 5.986 537.691 5.986 537.789 5.888L538.881 4.754C538.993 4.642 538.993 4.474 538.867 4.362C537.915 3.494 536.879 3.06 535.479 3.06C532.679 3.06 530.425 5.314 530.425 8.114ZM540.709 12.664C540.709 12.846 540.849 13 541.045 13H542.683C542.865 13 543.019 12.846 543.019 12.664V8.492L546.253 12.888C546.281 12.93 546.407 12.986 546.505 12.986H548.437C548.703 12.986 548.857 12.678 548.703 12.468L545.133 7.82L548.409 3.718C548.563 3.508 548.423 3.2 548.157 3.2H546.393C546.309 3.2 546.183 3.27 546.127 3.34L543.019 7.218V3.536C543.019 3.354 542.865 3.2 542.683 3.2H541.045C540.849 3.2 540.709 3.354 540.709 3.536V12.664ZM550.279 12.734C550.279 12.874 550.391 13 550.545 13H556.341C556.495 13 556.607 12.874 556.607 12.734V11.208C556.607 11.068 556.495 10.942 556.341 10.942H552.463V9.052H555.655C555.795 9.052 555.921 8.94 555.921 8.786V7.26C555.921 7.12 555.795 6.994 555.655 6.994H552.463V5.258H556.341C556.495 5.258 556.607 5.132 556.607 4.992V3.466C556.607 3.326 556.495 3.2 556.341 3.2H550.545C550.391 3.2 550.279 3.326 550.279 3.466V12.734ZM558.632 12.734C558.632 12.874 558.744 13 558.884 13H562.3C565.002 13 567.214 10.802 567.214 8.086C567.214 5.398 565.002 3.2 562.3 3.2H558.884C558.744 3.2 558.632 3.326 558.632 3.466V12.734ZM560.816 10.928V5.258H562.16C563.742 5.258 564.89 6.504 564.89 8.086C564.89 9.682 563.742 10.928 562.16 10.928H560.816ZM572.317 12.734C572.317 12.874 572.429 13 572.569 13H575.985C578.687 13 580.899 10.802 580.899 8.086C580.899 5.398 578.687 3.2 575.985 3.2H572.569C572.429 3.2 572.317 3.326 572.317 3.466V12.734ZM574.501 10.928V5.258H575.845C577.427 5.258 578.575 6.504 578.575 8.086C578.575 9.682 577.427 10.928 575.845 10.928H574.501ZM582.762 12.734C582.762 12.874 582.874 13 583.028 13H588.824C588.978 13 589.09 12.874 589.09 12.734V11.208C589.09 11.068 588.978 10.942 588.824 10.942H584.946V9.052H588.138C588.278 9.052 588.404 8.94 588.404 8.786V7.26C588.404 7.12 588.278 6.994 588.138 6.994H584.946V5.258H588.824C588.978 5.258 589.09 5.132 589.09 4.992V3.466C589.09 3.326 588.978 3.2 588.824 3.2H583.028C582.874 3.2 582.762 3.326 582.762 3.466V12.734ZM591.115 12.734C591.115 12.874 591.227 13 591.381 13H593.033C593.173 13 593.299 12.874 593.299 12.734V9.332H596.491C596.631 9.332 596.757 9.206 596.757 9.066V7.54C596.757 7.4 596.631 7.274 596.491 7.274H593.299V5.258H597.177C597.331 5.258 597.443 5.132 597.443 4.992V3.466C597.443 3.326 597.331 3.2 597.177 3.2H591.381C591.227 3.2 591.115 3.326 591.115 3.466V12.734ZM599.154 12.734C599.154 12.874 599.28 13 599.42 13H601.1C601.24 13 601.366 12.874 601.366 12.734V3.466C601.366 3.326 601.24 3.2 601.1 3.2H599.42C599.28 3.2 599.154 3.326 599.154 3.466V12.734Z" fill="white" fill-opacity="0.87"/>
<path d="M152.707 100.707C153.098 100.317 153.098 99.6834 152.707 99.2929L146.343 92.9289C145.953 92.5384 145.319 92.5384 144.929 92.9289C144.538 93.3195 144.538 93.9526 144.929 94.3431L150.586 100L144.929 105.657C144.538 106.047 144.538 106.681 144.929 107.071C145.319 107.462 145.953 107.462 146.343 107.071L152.707 100.707ZM127 101H152V99H127V101Z" fill="#F94432"/>
<path d="M461.707 100.707C462.098 100.317 462.098 99.6834 461.707 99.2929L455.343 92.9289C454.953 92.5384 454.319 92.5384 453.929 92.9289C453.538 93.3195 453.538 93.9526 453.929 94.3431L459.586 100L453.929 105.657C453.538 106.047 453.538 106.681 453.929 107.071C454.319 107.462 454.953 107.462 455.343 107.071L461.707 100.707ZM436 101H461V99H436V101Z" fill="#F94432"/>
<path d="M5.01183 12.692C4.98383 12.874 5.10983 13 5.27783 13H6.92983C7.06983 13 7.18183 12.888 7.19583 12.776L7.81183 8.45H7.83983L10.2058 12.986C10.2478 13.07 10.3598 13.14 10.4438 13.14H10.6958C10.7658 13.14 10.8918 13.07 10.9338 12.986L13.2858 8.45H13.3138L13.9438 12.776C13.9578 12.888 14.0838 13 14.2098 13H15.8618C16.0298 13 16.1558 12.874 16.1278 12.692L14.5458 3.284C14.5318 3.158 14.4058 3.06 14.2938 3.06H14.0698C13.9998 3.06 13.8738 3.116 13.8318 3.2L10.5838 9.248H10.5558L7.30783 3.2C7.26583 3.116 7.13983 3.06 7.06983 3.06H6.84583C6.73383 3.06 6.60783 3.158 6.59383 3.284L5.01183 12.692ZM17.0468 13H18.5868C18.8668 13 19.0208 12.832 19.0908 12.664L19.5948 11.544H23.4028L23.9068 12.65C24.0328 12.916 24.1448 13 24.3968 13H25.9508C26.1608 13 26.2728 12.818 26.1888 12.636L21.8068 3.214C21.7648 3.13 21.6668 3.06 21.5688 3.06H21.4288C21.3308 3.06 21.2328 3.13 21.1908 3.214L16.8088 12.636C16.7248 12.818 16.8368 13 17.0468 13ZM20.4348 9.64L21.4848 7.33H21.4988L22.5628 9.64H20.4348ZM27.4884 12.734C27.4884 12.874 27.6004 13 27.7544 13H29.4204C29.5604 13 29.6864 12.874 29.6864 12.734V9.164H30.6524L32.5144 12.874C32.5424 12.93 32.6264 13 32.7384 13H34.6004C34.8384 13 34.9364 12.776 34.8384 12.594L32.9204 9.038C34.1384 8.548 34.9924 7.512 34.9924 6.224C34.9924 4.558 33.6204 3.2 31.9404 3.2H27.7544C27.6004 3.2 27.4884 3.326 27.4884 3.466V12.734ZM29.6864 7.386V5.202H31.7584C32.3324 5.202 32.8224 5.678 32.8224 6.266C32.8224 6.854 32.3324 7.386 31.7584 7.386H29.6864ZM37.0173 12.664C37.0173 12.846 37.1573 13 37.3533 13H38.9913C39.1733 13 39.3273 12.846 39.3273 12.664V8.492L42.5613 12.888C42.5893 12.93 42.7153 12.986 42.8133 12.986H44.7453C45.0113 12.986 45.1653 12.678 45.0113 12.468L41.4413 7.82L44.7173 3.718C44.8713 3.508 44.7313 3.2 44.4653 3.2H42.7013C42.6173 3.2 42.4913 3.27 42.4353 3.34L39.3273 7.218V3.536C39.3273 3.354 39.1733 3.2 38.9913 3.2H37.3533C37.1573 3.2 37.0173 3.354 37.0173 3.536V12.664ZM46.5872 12.734C46.5872 12.874 46.6992 13 46.8532 13H52.6492C52.8032 13 52.9152 12.874 52.9152 12.734V11.208C52.9152 11.068 52.8032 10.942 52.6492 10.942H48.7712V9.052H51.9632C52.1032 9.052 52.2292 8.94 52.2292 8.786V7.26C52.2292 7.12 52.1032 6.994 51.9632 6.994H48.7712V5.258H52.6492C52.8032 5.258 52.9152 5.132 52.9152 4.992V3.466C52.9152 3.326 52.8032 3.2 52.6492 3.2H46.8532C46.6992 3.2 46.5872 3.326 46.5872 3.466V12.734ZM56.2003 12.734C56.2003 12.874 56.3263 13 56.4663 13H58.1463C58.2863 13 58.4123 12.874 58.4123 12.734V5.258H60.4143C60.5683 5.258 60.6803 5.132 60.6803 4.992V3.466C60.6803 3.326 60.5683 3.2 60.4143 3.2H54.1983C54.0443 3.2 53.9323 3.326 53.9323 3.466V4.992C53.9323 5.132 54.0443 5.258 54.1983 5.258H56.2003V12.734ZM65.4669 12.734C65.4669 12.874 65.5789 13 65.7189 13H69.1349C71.8369 13 74.0489 10.802 74.0489 8.086C74.0489 5.398 71.8369 3.2 69.1349 3.2H65.7189C65.5789 3.2 65.4669 3.326 65.4669 3.466V12.734ZM67.6509 10.928V5.258H68.9949C70.5769 5.258 71.7249 6.504 71.7249 8.086C71.7249 9.682 70.5769 10.928 68.9949 10.928H67.6509ZM74.7941 13H76.3341C76.6141 13 76.7681 12.832 76.8381 12.664L77.3421 11.544H81.1501L81.6541 12.65C81.7801 12.916 81.8921 13 82.1441 13H83.6981C83.9081 13 84.0201 12.818 83.9361 12.636L79.5541 3.214C79.5121 3.13 79.4141 3.06 79.3161 3.06H79.1761C79.0781 3.06 78.9801 3.13 78.9381 3.214L74.5561 12.636C74.4721 12.818 74.5841 13 74.7941 13ZM78.1821 9.64L79.2321 7.33H79.2461L80.3101 9.64H78.1821ZM85.9898 12.734C85.9898 12.874 86.1158 13 86.2558 13H87.9358C88.0758 13 88.2018 12.874 88.2018 12.734V5.258H90.2038C90.3578 5.258 90.4698 5.132 90.4698 4.992V3.466C90.4698 3.326 90.3578 3.2 90.2038 3.2H83.9878C83.8338 3.2 83.7218 3.326 83.7218 3.466V4.992C83.7218 5.132 83.8338 5.258 83.9878 5.258H85.9898V12.734ZM90.4886 13H92.0286C92.3086 13 92.4626 12.832 92.5326 12.664L93.0366 11.544H96.8446L97.3486 12.65C97.4746 12.916 97.5866 13 97.8386 13H99.3926C99.6026 13 99.7146 12.818 99.6306 12.636L95.2486 3.214C95.2066 3.13 95.1086 3.06 95.0106 3.06H94.8706C94.7726 3.06 94.6746 3.13 94.6326 3.214L90.2506 12.636C90.1666 12.818 90.2786 13 90.4886 13ZM93.8766 9.64L94.9266 7.33H94.9406L96.0046 9.64H93.8766Z" fill="white" fill-opacity="0.87"/>
<path fill-rule="evenodd" clip-rule="evenodd" d="M32 129C32 137.836 24.8361 145 16 145C7.16394 145 0 137.836 0 129C0 120.164 7.16394 113 16 113C24.8379 113 32 120.164 32 129ZM7.89396 129.538L7.96298 129.429L12.1252 122.918C12.1861 122.823 12.329 122.832 12.375 122.936C13.0704 124.494 13.6704 126.432 13.3894 127.639C13.2694 128.135 12.9406 128.808 12.5707 129.429C12.523 129.52 12.4704 129.608 12.4146 129.694C12.3882 129.733 12.3438 129.756 12.2962 129.756H8.0156C7.90052 129.756 7.83312 129.631 7.89396 129.538ZM26.447 131.778V130.748C26.447 130.652 26.3549 130.583 26.2645 130.609L21.397 132.017C21.3707 132.023 21.3477 132.038 21.3296 132.058C20.8089 132.633 20.3662 133.019 20.2483 133.122L20.2398 133.129C19.9373 133.386 19.5625 133.526 19.1679 133.526H17.4058V131.729H18.8063C18.8425 131.729 18.877 131.716 18.9033 131.693L19.0841 131.527C19.1614 131.456 19.2534 131.371 19.3636 131.26C19.3727 131.251 19.3819 131.242 19.3912 131.233C19.4493 131.175 19.5114 131.113 19.5723 131.045C19.6447 130.974 19.7154 130.895 19.7811 130.818C19.8913 130.7 19.9965 130.577 20.1066 130.447C20.1855 130.361 20.2578 130.264 20.3286 130.167C20.4074 130.075 20.4847 129.972 20.557 129.873C20.5839 129.833 20.6126 129.793 20.6419 129.753C20.6698 129.714 20.6982 129.674 20.7263 129.633C20.779 129.554 20.8315 129.47 20.8759 129.391C21.014 129.178 21.1307 128.949 21.2294 128.721C21.2746 128.623 21.3108 128.52 21.3459 128.42C21.3504 128.407 21.3548 128.395 21.3592 128.382C21.3986 128.265 21.4315 128.155 21.4562 128.038C21.5154 127.764 21.5286 127.491 21.5022 127.218C21.4957 127.133 21.489 127.049 21.4694 126.97V126.957C21.4628 126.901 21.4496 126.838 21.4315 126.781C21.3724 126.515 21.2803 126.248 21.1636 125.987C21.1242 125.89 21.0782 125.791 21.0338 125.701C20.9286 125.505 20.8184 125.31 20.6934 125.121C20.6684 125.081 20.6408 125.04 20.6132 125C20.5919 124.969 20.5705 124.938 20.5505 124.907C20.4713 124.785 20.3824 124.667 20.2961 124.553C20.2766 124.527 20.2572 124.502 20.2381 124.476C20.1871 124.409 20.1313 124.342 20.0752 124.275C20.0444 124.238 20.0135 124.201 19.9833 124.164C19.8978 124.06 19.814 123.962 19.7286 123.865C19.4228 123.52 19.1022 123.207 18.8162 122.941C18.7636 122.888 18.706 122.836 18.6469 122.785C18.425 122.583 18.2227 122.407 18.0534 122.27C18.0023 122.231 17.9564 122.192 17.9138 122.156C17.8851 122.132 17.8579 122.109 17.8315 122.088C17.7803 122.05 17.7358 122.016 17.6984 121.987C17.6747 121.969 17.6538 121.953 17.6359 121.94C17.6227 121.93 17.6079 121.923 17.5932 121.918L17.4058 121.866V120.314C17.4058 120.061 17.3038 119.834 17.1411 119.668C16.9783 119.502 16.7515 119.4 16.5017 119.4C16.0019 119.4 15.5975 119.809 15.5975 120.314V121.359L15.5038 121.333L15.249 121.261L15.0172 121.197C15.0165 121.197 15.0159 121.196 15.0151 121.196C15.0139 121.196 15.0126 121.195 15.0106 121.195H15.0058L13.2468 120.718C13.1695 120.697 13.1038 120.781 13.1433 120.852L13.4243 121.371C13.4403 121.411 13.4605 121.451 13.4812 121.492C13.4947 121.518 13.5084 121.545 13.5214 121.573C13.5674 121.665 13.6134 121.762 13.6578 121.859C13.6972 121.945 13.7367 122.029 13.7827 122.121C13.8021 122.164 13.8219 122.208 13.842 122.253C13.9154 122.416 13.9926 122.587 14.0687 122.772L14.0687 122.772C14.1345 122.928 14.2002 123.084 14.2578 123.247C14.4156 123.656 14.5652 124.093 14.695 124.542C14.7274 124.643 14.7532 124.74 14.7794 124.838C14.7905 124.88 14.8016 124.922 14.8134 124.965L14.8314 125.043C14.8841 125.252 14.9302 125.459 14.963 125.668C14.9893 125.811 15.0139 125.947 15.0271 126.086L15.0274 126.088C15.047 126.243 15.0666 126.399 15.0731 126.554C15.0863 126.697 15.0929 126.847 15.0929 126.99C15.0929 127.355 15.06 127.706 14.9827 128.038C14.9779 128.056 14.973 128.074 14.9681 128.093C14.9465 128.173 14.9241 128.257 14.8972 128.338C14.8729 128.424 14.8415 128.51 14.8087 128.6C14.7972 128.631 14.7855 128.663 14.7739 128.696C14.7715 128.702 14.7691 128.709 14.7667 128.715C14.7427 128.78 14.7183 128.846 14.6885 128.91C14.5257 129.301 14.3235 129.691 14.1148 130.055C13.809 130.596 13.5016 131.071 13.2862 131.377C13.2727 131.398 13.2595 131.417 13.2467 131.435C13.2317 131.457 13.2174 131.478 13.2041 131.499C13.1367 131.594 13.2057 131.729 13.3224 131.729H15.5975V133.526H13.2961C12.678 133.526 12.106 133.176 11.8298 132.615C11.6868 132.334 11.6309 132.025 11.6638 131.722C11.672 131.632 11.6046 131.546 11.5126 131.546H6.86371C6.7848 131.546 6.7207 131.611 6.7207 131.689V131.785C6.7207 134.75 9.11583 137.154 12.0714 137.154H20.4107C21.9739 137.154 22.8616 135.729 23.734 134.329C23.9772 133.939 24.2192 133.55 24.4743 133.195C24.933 132.557 26.036 132.051 26.3582 131.913C26.4107 131.89 26.447 131.837 26.447 131.778Z" fill="white" fill-opacity="0.87"/>
<path fill-rule="evenodd" clip-rule="evenodd" d="M87 113C95.8366 113 103 120.163 103 129C103 137.837 95.8366 145 87 145C78.1634 145 71 137.837 71 129C71 120.163 78.1634 113 87 113ZM89.5602 118.12C92.5191 118.12 95.2021 119.301 97.1635 121.218C94.8239 118.167 91.1417 116.2 87.0002 116.2C79.9309 116.2 74.2002 121.931 74.2002 129C74.2002 136.069 79.9309 141.8 87.0002 141.8C91.1417 141.8 94.8239 139.833 97.1635 136.782C95.2021 138.699 92.5191 139.88 89.5602 139.88C83.5513 139.88 78.6802 135.009 78.6802 129C78.6802 122.991 83.5513 118.12 89.5602 118.12ZM81.4287 135.226C82.9978 136.759 85.1442 137.704 87.5114 137.704C92.3185 137.704 96.2153 133.807 96.2153 129C96.2153 124.193 92.3185 120.296 87.5114 120.296C85.1442 120.296 82.9978 121.241 81.4287 122.774C83.3004 120.334 86.2461 118.76 89.5594 118.76C95.2147 118.76 99.7994 123.345 99.7994 129C99.7994 134.655 95.2147 139.24 89.5594 139.24C86.2461 139.24 83.3004 137.666 81.4287 135.226ZM86.9993 136.68C91.2409 136.68 94.6793 133.242 94.6793 129C94.6793 124.758 91.2409 121.32 86.9993 121.32C82.7578 121.32 79.3193 124.758 79.3193 129C79.3193 133.242 82.7578 136.68 86.9993 136.68ZM86.9993 134.12C89.827 134.12 92.1193 131.828 92.1193 129C92.1193 126.172 89.827 123.88 86.9993 123.88C84.1717 123.88 81.8793 126.172 81.8793 129C81.8793 131.828 84.1717 134.12 86.9993 134.12Z" fill="white" fill-opacity="0.87"/>
<g clip-path="url(#clip0_1281_6055)">
<path fill-rule="evenodd" clip-rule="evenodd" d="M32.334 75.1242L44.3657 63.4969H60.3869L72.4186 75.1319L52.3763 94.5031L32.334 75.1242ZM60.9481 71.0489C56.216 66.4441 48.5372 66.4441 43.8051 71.0489L39.7129 75.0245L43.8051 79C48.5372 83.6049 56.216 83.6049 60.9481 79L65.0403 75.0245L60.9481 71.0489Z" fill="white" fill-opacity="0.87"/>
<path fill-rule="evenodd" clip-rule="evenodd" d="M47.3682 75.1549C47.3682 77.7721 49.6118 79.898 52.3768 79.898C55.1497 79.898 57.3854 77.7721 57.3854 75.1549C57.3854 72.5378 55.1418 70.4119 52.3768 70.4119C49.6118 70.4119 47.3682 72.5378 47.3682 75.1549ZM50.2666 75.0245C50.2666 76.1526 51.2146 77.0736 52.3759 77.0736C53.5451 77.0736 54.4852 76.1603 54.4852 75.0245C54.4852 73.8963 53.5372 72.9753 52.3759 72.9753C51.2146 72.9753 50.2666 73.8886 50.2666 75.0245Z" fill="white" fill-opacity="0.87"/>
</g>
<defs>
<clipPath id="clip0_1281_6055">
<rect width="40.8" height="32" fill="white" transform="translate(32 63)"/>
</clipPath>
</defs>
</svg>
