<svg width="640" height="188" viewBox="0 0 640 188" fill="none" xmlns="http://www.w3.org/2000/svg">
<rect x="231.5" y="72.5" width="126" height="115" rx="4.5" fill="#1C0200" stroke="white"/>
<g clip-path="url(#clip0_1281_6055)">
<path d="M281.556 111.659L294.227 133.76H289.584L276.33 111.537L278.787 107.266H299.418H299.556L299.625 107.146L302.221 102.633L302.428 102.273H302.014H281.651L283.878 98.24H304.368L306.826 102.513L296.51 120.34L296.436 120.47L296.519 120.594L299.53 125.107L299.744 125.427L299.936 125.094L310.113 107.506L312.434 111.54L299.837 133.511L297.55 129.371L297.549 129.369L297.548 129.367L287.163 111.419L287.094 111.299H286.956H281.764H281.35L281.556 111.659ZM294.329 116.171L294.551 116.564L294.751 116.159L296.932 111.751L297.104 111.404H296.718H292.045H291.634L291.836 111.763L294.329 116.171Z" fill="url(#paint0_linear_1281_6055)" stroke="#F94432"/>
</g>
<path d="M251.35 161.772C251.35 161.892 251.446 162 251.578 162H256.09C256.222 162 256.318 161.892 256.318 161.772V160.464C256.318 160.344 256.222 160.236 256.09 160.236H253.234V153.828C253.234 153.708 253.126 153.6 253.006 153.6H251.578C251.446 153.6 251.35 153.708 251.35 153.828V161.772ZM257.628 161.772C257.628 161.892 257.724 162 257.856 162H262.824C262.956 162 263.052 161.892 263.052 161.772V160.464C263.052 160.344 262.956 160.236 262.824 160.236H259.5V158.616H262.236C262.356 158.616 262.464 158.52 262.464 158.388V157.08C262.464 156.96 262.356 156.852 262.236 156.852H259.5V155.364H262.824C262.956 155.364 263.052 155.256 263.052 155.136V153.828C263.052 153.708 262.956 153.6 262.824 153.6H257.856C257.724 153.6 257.628 153.708 257.628 153.828V161.772ZM264.81 161.772C264.81 161.892 264.918 162 265.038 162H266.466C266.598 162 266.694 161.892 266.694 161.772V157.296H266.706L271.446 162.06C271.47 162.084 271.566 162.12 271.602 162.12H271.794C271.914 162.12 272.022 162.024 272.022 161.904V153.828C272.022 153.708 271.914 153.6 271.794 153.6H270.354C270.222 153.6 270.126 153.708 270.126 153.828V158.088H270.114L265.326 153.48H265.026C264.906 153.48 264.798 153.576 264.798 153.696L264.81 161.772ZM274.241 161.772C274.241 161.892 274.337 162 274.457 162H277.385C279.701 162 281.597 160.116 281.597 157.788C281.597 155.484 279.701 153.6 277.385 153.6H274.457C274.337 153.6 274.241 153.708 274.241 153.828V161.772ZM276.113 160.224V155.364H277.265C278.621 155.364 279.605 156.432 279.605 157.788C279.605 159.156 278.621 160.224 277.265 160.224H276.113ZM283.215 161.772C283.215 161.892 283.323 162 283.443 162H284.883C285.003 162 285.111 161.892 285.111 161.772V153.828C285.111 153.708 285.003 153.6 284.883 153.6H283.443C283.323 153.6 283.215 153.708 283.215 153.828V161.772ZM287.326 161.772C287.326 161.892 287.434 162 287.554 162H288.982C289.114 162 289.21 161.892 289.21 161.772V157.296H289.222L293.962 162.06C293.986 162.084 294.082 162.12 294.118 162.12H294.31C294.43 162.12 294.538 162.024 294.538 161.904V153.828C294.538 153.708 294.43 153.6 294.31 153.6H292.87C292.738 153.6 292.642 153.708 292.642 153.828V158.088H292.63L287.842 153.48H287.542C287.422 153.48 287.314 153.576 287.314 153.696L287.326 161.772ZM296.157 157.812C296.157 160.212 298.077 162.108 300.465 162.108C302.205 162.108 303.441 161.328 303.441 161.328C303.489 161.292 303.537 161.196 303.537 161.136L303.525 157.908C303.525 157.788 303.429 157.68 303.309 157.68H300.897C300.765 157.68 300.669 157.776 300.669 157.908V159.096C300.669 159.216 300.765 159.312 300.897 159.312H301.653V160.008C301.293 160.152 300.933 160.2 300.585 160.2C299.277 160.2 298.209 159.12 298.209 157.812C298.209 156.492 299.265 155.388 300.573 155.388C301.161 155.388 301.689 155.544 302.145 155.964C302.241 156.036 302.373 156.036 302.469 155.952L303.417 154.944C303.513 154.848 303.501 154.704 303.393 154.62C302.577 153.912 301.473 153.492 300.465 153.492C298.077 153.492 296.157 155.412 296.157 157.812ZM308.132 161.772C308.132 161.892 308.228 162 308.36 162H309.776C309.896 162 310.004 161.892 310.004 161.772V158.952H311.264C312.728 158.952 313.94 157.74 313.94 156.252C313.94 154.8 312.728 153.6 311.252 153.6H308.36C308.228 153.6 308.132 153.708 308.132 153.828V161.772ZM310.004 157.2V155.364H311.144C311.66 155.364 312.092 155.748 312.092 156.252C312.092 156.792 311.66 157.2 311.144 157.2H310.004ZM314.736 157.812C314.736 160.212 316.644 162.12 319.044 162.12C321.444 162.12 323.364 160.212 323.364 157.812C323.364 155.412 321.444 153.48 319.044 153.48C316.644 153.48 314.736 155.412 314.736 157.812ZM316.656 157.812C316.656 156.492 317.736 155.4 319.044 155.4C320.364 155.4 321.444 156.492 321.444 157.812C321.444 159.12 320.364 160.2 319.044 160.2C317.736 160.2 316.656 159.12 316.656 157.812ZM324.355 157.812C324.355 160.212 326.263 162.12 328.663 162.12C331.063 162.12 332.983 160.212 332.983 157.812C332.983 155.412 331.063 153.48 328.663 153.48C326.263 153.48 324.355 155.412 324.355 157.812ZM326.275 157.812C326.275 156.492 327.355 155.4 328.663 155.4C329.983 155.4 331.063 156.492 331.063 157.812C331.063 159.12 329.983 160.2 328.663 160.2C327.355 160.2 326.275 159.12 326.275 157.812ZM334.586 161.772C334.586 161.892 334.682 162 334.814 162H339.326C339.458 162 339.554 161.892 339.554 161.772V160.464C339.554 160.344 339.458 160.236 339.326 160.236H336.47V153.828C336.47 153.708 336.362 153.6 336.242 153.6H334.814C334.682 153.6 334.586 153.708 334.586 153.828V161.772Z" fill="white" fill-opacity="0.87"/>
<rect x="0.5" y="118.5" width="99" height="29" rx="4.5" fill="#1C0200" stroke="white"/>
<path d="M27.032 137.772C27.032 137.892 27.128 138 27.26 138H31.772C31.904 138 32 137.892 32 137.772V136.464C32 136.344 31.904 136.236 31.772 136.236H28.916V129.828C28.916 129.708 28.808 129.6 28.688 129.6H27.26C27.128 129.6 27.032 129.708 27.032 129.828V137.772ZM33.3109 137.772C33.3109 137.892 33.4069 138 33.5389 138H38.5069C38.6389 138 38.7349 137.892 38.7349 137.772V136.464C38.7349 136.344 38.6389 136.236 38.5069 136.236H35.1829V134.616H37.9189C38.0389 134.616 38.1469 134.52 38.1469 134.388V133.08C38.1469 132.96 38.0389 132.852 37.9189 132.852H35.1829V131.364H38.5069C38.6389 131.364 38.7349 131.256 38.7349 131.136V129.828C38.7349 129.708 38.6389 129.6 38.5069 129.6H33.5389C33.4069 129.6 33.3109 129.708 33.3109 129.828V137.772ZM40.4922 137.772C40.4922 137.892 40.6002 138 40.7202 138H42.1482C42.2802 138 42.3762 137.892 42.3762 137.772V133.296H42.3882L47.1282 138.06C47.1522 138.084 47.2482 138.12 47.2842 138.12H47.4762C47.5962 138.12 47.7042 138.024 47.7042 137.904V129.828C47.7042 129.708 47.5962 129.6 47.4762 129.6H46.0362C45.9042 129.6 45.8082 129.708 45.8082 129.828V134.088H45.7962L41.0082 129.48H40.7082C40.5882 129.48 40.4802 129.576 40.4802 129.696L40.4922 137.772ZM49.9234 137.772C49.9234 137.892 50.0194 138 50.1394 138H53.0674C55.3834 138 57.2794 136.116 57.2794 133.788C57.2794 131.484 55.3834 129.6 53.0674 129.6H50.1394C50.0194 129.6 49.9234 129.708 49.9234 129.828V137.772ZM51.7954 136.224V131.364H52.9474C54.3034 131.364 55.2874 132.432 55.2874 133.788C55.2874 135.156 54.3034 136.224 52.9474 136.224H51.7954ZM58.8976 137.772C58.8976 137.892 58.9936 138 59.1256 138H64.0936C64.2256 138 64.3216 137.892 64.3216 137.772V136.464C64.3216 136.344 64.2256 136.236 64.0936 136.236H60.7696V134.616H63.5056C63.6256 134.616 63.7336 134.52 63.7336 134.388V133.08C63.7336 132.96 63.6256 132.852 63.5056 132.852H60.7696V131.364H64.0936C64.2256 131.364 64.3216 131.256 64.3216 131.136V129.828C64.3216 129.708 64.2256 129.6 64.0936 129.6H59.1256C58.9936 129.6 58.8976 129.708 58.8976 129.828V137.772ZM66.0789 137.772C66.0789 137.892 66.1749 138 66.3069 138H67.7349C67.8549 138 67.9629 137.892 67.9629 137.772V134.712H68.7909L70.3869 137.892C70.4109 137.94 70.4829 138 70.5789 138H72.1749C72.3789 138 72.4629 137.808 72.3789 137.652L70.7349 134.604C71.7789 134.184 72.5109 133.296 72.5109 132.192C72.5109 130.764 71.3349 129.6 69.8949 129.6H66.3069C66.1749 129.6 66.0789 129.708 66.0789 129.828V137.772ZM67.9629 133.188V131.316H69.7389C70.2309 131.316 70.6509 131.724 70.6509 132.228C70.6509 132.732 70.2309 133.188 69.7389 133.188H67.9629Z" fill="white" fill-opacity="0.87"/>
<rect x="489.5" y="118.5" width="99" height="29" rx="4.5" fill="#1C0200" stroke="white"/>
<path d="M508.032 137.772C508.032 137.892 508.128 138 508.26 138H511.236C512.664 138 513.852 137.028 513.852 135.684C513.852 134.58 512.88 133.992 512.244 133.728C512.808 133.428 513.636 132.756 513.636 131.832C513.636 130.572 512.472 129.6 511.056 129.6H508.26C508.128 129.6 508.032 129.708 508.032 129.828V137.772ZM509.904 133.008V131.328H510.84C511.296 131.328 511.68 131.664 511.68 132.144C511.68 132.624 511.296 133.008 510.84 133.008H509.904ZM509.904 136.284V134.568H510.876C511.344 134.568 511.86 134.928 511.86 135.408C511.86 135.9 511.464 136.284 510.996 136.284H509.904ZM514.918 133.812C514.918 136.212 516.826 138.12 519.226 138.12C521.626 138.12 523.546 136.212 523.546 133.812C523.546 131.412 521.626 129.48 519.226 129.48C516.826 129.48 514.918 131.412 514.918 133.812ZM516.838 133.812C516.838 132.492 517.918 131.4 519.226 131.4C520.546 131.4 521.626 132.492 521.626 133.812C521.626 135.12 520.546 136.2 519.226 136.2C517.918 136.2 516.838 135.12 516.838 133.812ZM525.148 137.772C525.148 137.892 525.244 138 525.376 138H526.804C526.924 138 527.032 137.892 527.032 137.772V134.712H527.86L529.456 137.892C529.48 137.94 529.552 138 529.648 138H531.244C531.448 138 531.532 137.808 531.448 137.652L529.804 134.604C530.848 134.184 531.58 133.296 531.58 132.192C531.58 130.764 530.404 129.6 528.964 129.6H525.376C525.244 129.6 525.148 129.708 525.148 129.828V137.772ZM527.032 133.188V131.316H528.808C529.3 131.316 529.72 131.724 529.72 132.228C529.72 132.732 529.3 133.188 528.808 133.188H527.032ZM533.337 137.772C533.337 137.892 533.433 138 533.565 138H534.993C535.113 138 535.221 137.892 535.221 137.772V134.712H536.049L537.645 137.892C537.669 137.94 537.741 138 537.837 138H539.433C539.637 138 539.721 137.808 539.637 137.652L537.993 134.604C539.037 134.184 539.769 133.296 539.769 132.192C539.769 130.764 538.593 129.6 537.153 129.6H533.565C533.433 129.6 533.337 129.708 533.337 129.828V137.772ZM535.221 133.188V131.316H536.997C537.489 131.316 537.909 131.724 537.909 132.228C537.909 132.732 537.489 133.188 536.997 133.188H535.221ZM540.915 133.812C540.915 136.212 542.823 138.12 545.223 138.12C547.623 138.12 549.543 136.212 549.543 133.812C549.543 131.412 547.623 129.48 545.223 129.48C542.823 129.48 540.915 131.412 540.915 133.812ZM542.835 133.812C542.835 132.492 543.915 131.4 545.223 131.4C546.543 131.4 547.623 132.492 547.623 133.812C547.623 135.12 546.543 136.2 545.223 136.2C543.915 136.2 542.835 135.12 542.835 133.812ZM552.611 137.952C552.635 138.048 552.731 138.12 552.827 138.12H553.019C553.103 138.12 553.187 138.06 553.223 137.988L555.407 133.08H555.443L557.639 137.988C557.675 138.06 557.759 138.12 557.843 138.12H558.035C558.131 138.12 558.227 138.048 558.251 137.952L560.519 129.888C560.567 129.72 560.471 129.6 560.303 129.6H558.899C558.803 129.6 558.707 129.684 558.683 129.768L557.651 133.836H557.603L555.743 129.612C555.719 129.54 555.647 129.48 555.539 129.48H555.323C555.227 129.48 555.155 129.54 555.119 129.612L553.259 133.836H553.211L552.179 129.768C552.155 129.684 552.059 129.6 551.963 129.6H550.559C550.391 129.6 550.295 129.72 550.343 129.888L552.611 137.952ZM561.959 137.772C561.959 137.892 562.055 138 562.187 138H567.155C567.287 138 567.383 137.892 567.383 137.772V136.464C567.383 136.344 567.287 136.236 567.155 136.236H563.831V134.616H566.567C566.687 134.616 566.795 134.52 566.795 134.388V133.08C566.795 132.96 566.687 132.852 566.567 132.852H563.831V131.364H567.155C567.287 131.364 567.383 131.256 567.383 131.136V129.828C567.383 129.708 567.287 129.6 567.155 129.6H562.187C562.055 129.6 561.959 129.708 561.959 129.828V137.772ZM569.141 137.772C569.141 137.892 569.237 138 569.369 138H570.797C570.917 138 571.025 137.892 571.025 137.772V134.712H571.853L573.449 137.892C573.473 137.94 573.545 138 573.641 138H575.237C575.441 138 575.525 137.808 575.441 137.652L573.797 134.604C574.841 134.184 575.573 133.296 575.573 132.192C575.573 130.764 574.397 129.6 572.957 129.6H569.369C569.237 129.6 569.141 129.708 569.141 129.828V137.772ZM571.025 133.188V131.316H572.801C573.293 131.316 573.713 131.724 573.713 132.228C573.713 132.732 573.293 133.188 572.801 133.188H571.025Z" fill="white" fill-opacity="0.87"/>
<rect x="248.5" y="0.5" width="99" height="29" rx="4.5" fill="#1C0200" stroke="white"/>
<path d="M263.032 19.772C263.032 19.892 263.14 20 263.26 20H264.688C264.82 20 264.916 19.892 264.916 19.772V15.296H264.928L269.668 20.06C269.692 20.084 269.788 20.12 269.824 20.12H270.016C270.136 20.12 270.244 20.024 270.244 19.904V11.828C270.244 11.708 270.136 11.6 270.016 11.6H268.576C268.444 11.6 268.348 11.708 268.348 11.828V16.088H268.336L263.548 11.48H263.248C263.128 11.48 263.02 11.576 263.02 11.696L263.032 19.772ZM272.463 19.772C272.463 19.892 272.559 20 272.691 20H274.107C274.227 20 274.335 19.892 274.335 19.772V16.856H277.071C277.191 16.856 277.299 16.748 277.299 16.628V15.32C277.299 15.2 277.191 15.092 277.071 15.092H274.335V13.364H277.659C277.791 13.364 277.887 13.256 277.887 13.136V11.828C277.887 11.708 277.791 11.6 277.659 11.6H272.691C272.559 11.6 272.463 11.708 272.463 11.828V19.772ZM280.455 19.772C280.455 19.892 280.563 20 280.683 20H282.123C282.243 20 282.351 19.892 282.351 19.772V13.364H284.067C284.199 13.364 284.295 13.256 284.295 13.136V11.828C284.295 11.708 284.199 11.6 284.067 11.6H278.739C278.607 11.6 278.511 11.708 278.511 11.828V13.136C278.511 13.256 278.607 13.364 278.739 13.364H280.455V19.772ZM287.829 15.812C287.829 18.212 289.737 20.12 292.137 20.12C294.537 20.12 296.457 18.212 296.457 15.812C296.457 13.412 294.537 11.48 292.137 11.48C289.737 11.48 287.829 13.412 287.829 15.812ZM289.749 15.812C289.749 14.492 290.829 13.4 292.137 13.4C293.457 13.4 294.537 14.492 294.537 15.812C294.537 17.12 293.457 18.2 292.137 18.2C290.829 18.2 289.749 17.12 289.749 15.812ZM298.059 19.772C298.059 19.892 298.155 20 298.287 20H299.715C299.835 20 299.943 19.892 299.943 19.772V16.712H300.771L302.367 19.892C302.391 19.94 302.463 20 302.559 20H304.155C304.359 20 304.443 19.808 304.359 19.652L302.715 16.604C303.759 16.184 304.491 15.296 304.491 14.192C304.491 12.764 303.315 11.6 301.875 11.6H298.287C298.155 11.6 298.059 11.708 298.059 11.828V19.772ZM299.943 15.188V13.316H301.719C302.211 13.316 302.631 13.724 302.631 14.228C302.631 14.732 302.211 15.188 301.719 15.188H299.943ZM305.372 20H306.692C306.932 20 307.064 19.856 307.124 19.712L307.556 18.752H310.82L311.252 19.7C311.36 19.928 311.456 20 311.672 20H313.004C313.184 20 313.28 19.844 313.208 19.688L309.452 11.612C309.416 11.54 309.332 11.48 309.248 11.48H309.128C309.044 11.48 308.96 11.54 308.924 11.612L305.168 19.688C305.096 19.844 305.192 20 305.372 20ZM308.276 17.12L309.176 15.14H309.188L310.1 17.12H308.276ZM313.661 15.812C313.661 18.212 315.593 20.12 317.993 20.12C319.061 20.12 320.093 19.748 320.909 18.956C320.993 18.872 321.005 18.716 320.921 18.632L319.985 17.636C319.913 17.552 319.757 17.552 319.673 17.624C319.241 17.996 318.629 18.2 318.065 18.2C316.709 18.2 315.701 17.096 315.701 15.764C315.701 14.42 316.697 13.292 318.053 13.292C318.641 13.292 319.229 13.508 319.673 13.904C319.757 13.988 319.889 13.988 319.973 13.904L320.909 12.932C321.005 12.836 321.005 12.692 320.897 12.596C320.081 11.852 319.193 11.48 317.993 11.48C315.593 11.48 313.661 13.412 313.661 15.812ZM322.498 19.772C322.498 19.892 322.594 20 322.726 20H327.238C327.37 20 327.466 19.892 327.466 19.772V18.464C327.466 18.344 327.37 18.236 327.238 18.236H324.382V11.828C324.382 11.708 324.274 11.6 324.154 11.6H322.726C322.594 11.6 322.498 11.708 322.498 11.828V19.772ZM328.777 19.772C328.777 19.892 328.873 20 329.005 20H333.973C334.105 20 334.201 19.892 334.201 19.772V18.464C334.201 18.344 334.105 18.236 333.973 18.236H330.649V16.616H333.385C333.505 16.616 333.613 16.52 333.613 16.388V15.08C333.613 14.96 333.505 14.852 333.385 14.852H330.649V13.364H333.973C334.105 13.364 334.201 13.256 334.201 13.136V11.828C334.201 11.708 334.105 11.6 333.973 11.6H329.005C328.873 11.6 328.777 11.708 328.777 11.828V19.772Z" fill="white" fill-opacity="0.87"/>
<rect x="489.5" y="0.5" width="99" height="29" rx="4.5" fill="#1C0200" stroke="white"/>
<path d="M504.032 19.772C504.032 19.892 504.128 20 504.26 20H508.772C508.904 20 509 19.892 509 19.772V18.464C509 18.344 508.904 18.236 508.772 18.236H505.916V11.828C505.916 11.708 505.808 11.6 505.688 11.6H504.26C504.128 11.6 504.032 11.708 504.032 11.828V19.772ZM510.311 19.772C510.311 19.892 510.419 20 510.539 20H511.979C512.099 20 512.207 19.892 512.207 19.772V11.828C512.207 11.708 512.099 11.6 511.979 11.6H510.539C510.419 11.6 510.311 11.708 510.311 11.828V19.772ZM513.81 15.812C513.81 18.212 515.718 20.12 518.118 20.12C518.202 20.12 518.346 20.12 518.49 20.108L519.762 22.256C519.798 22.316 519.858 22.376 519.954 22.376H521.574C521.766 22.376 521.862 22.184 521.766 22.016L520.218 19.592C521.538 18.788 522.438 17.372 522.438 15.812C522.438 13.412 520.518 11.48 518.118 11.48C515.718 11.48 513.81 13.412 513.81 15.812ZM515.73 15.812C515.73 14.492 516.81 13.4 518.118 13.4C519.438 13.4 520.518 14.492 520.518 15.812C520.518 17.12 519.438 18.2 518.118 18.2C516.81 18.2 515.73 17.12 515.73 15.812ZM523.956 16.784C523.956 18.608 525.48 20.12 527.364 20.12C529.26 20.12 530.796 18.608 530.796 16.784V11.828C530.796 11.708 530.688 11.6 530.568 11.6H529.092C528.96 11.6 528.864 11.708 528.864 11.828V16.688C528.864 17.528 528.228 18.2 527.364 18.2C526.512 18.2 525.888 17.528 525.888 16.688V11.828C525.888 11.708 525.792 11.6 525.66 11.6H524.184C524.064 11.6 523.956 11.708 523.956 11.828V16.784ZM532.874 19.772C532.874 19.892 532.982 20 533.102 20H534.542C534.662 20 534.77 19.892 534.77 19.772V11.828C534.77 11.708 534.662 11.6 534.542 11.6H533.102C532.982 11.6 532.874 11.708 532.874 11.828V19.772ZM536.985 19.772C536.985 19.892 537.081 20 537.201 20H540.129C542.445 20 544.341 18.116 544.341 15.788C544.341 13.484 542.445 11.6 540.129 11.6H537.201C537.081 11.6 536.985 11.708 536.985 11.828V19.772ZM538.857 18.224V13.364H540.009C541.365 13.364 542.349 14.432 542.349 15.788C542.349 17.156 541.365 18.224 540.009 18.224H538.857ZM545.001 20H546.321C546.561 20 546.693 19.856 546.753 19.712L547.185 18.752H550.449L550.881 19.7C550.989 19.928 551.085 20 551.301 20H552.633C552.813 20 552.909 19.844 552.837 19.688L549.081 11.612C549.045 11.54 548.961 11.48 548.877 11.48H548.757C548.673 11.48 548.589 11.54 548.553 11.612L544.797 19.688C544.725 19.844 544.821 20 545.001 20ZM547.905 17.12L548.805 15.14H548.817L549.729 17.12H547.905ZM554.619 19.772C554.619 19.892 554.727 20 554.847 20H556.287C556.407 20 556.515 19.892 556.515 19.772V13.364H558.231C558.363 13.364 558.459 13.256 558.459 13.136V11.828C558.459 11.708 558.363 11.6 558.231 11.6H552.903C552.771 11.6 552.675 11.708 552.675 11.828V13.136C552.675 13.256 552.771 13.364 552.903 13.364H554.619V19.772ZM559.147 15.812C559.147 18.212 561.055 20.12 563.455 20.12C565.855 20.12 567.775 18.212 567.775 15.812C567.775 13.412 565.855 11.48 563.455 11.48C561.055 11.48 559.147 13.412 559.147 15.812ZM561.067 15.812C561.067 14.492 562.147 13.4 563.455 13.4C564.775 13.4 565.855 14.492 565.855 15.812C565.855 17.12 564.775 18.2 563.455 18.2C562.147 18.2 561.067 17.12 561.067 15.812ZM569.378 19.772C569.378 19.892 569.474 20 569.606 20H571.034C571.154 20 571.262 19.892 571.262 19.772V16.712H572.09L573.686 19.892C573.71 19.94 573.782 20 573.878 20H575.474C575.678 20 575.762 19.808 575.678 19.652L574.034 16.604C575.078 16.184 575.81 15.296 575.81 14.192C575.81 12.764 574.634 11.6 573.194 11.6H569.606C569.474 11.6 569.378 11.708 569.378 11.828V19.772ZM571.262 15.188V13.316H573.038C573.53 13.316 573.95 13.724 573.95 14.228C573.95 14.732 573.53 15.188 573.038 15.188H571.262Z" fill="white" fill-opacity="0.87"/>
<path d="M555.081 80.81C555.081 80.91 555.161 81 555.271 81H559.031C559.141 81 559.221 80.91 559.221 80.81V79.72C559.221 79.62 559.141 79.53 559.031 79.53H556.651V74.19C556.651 74.09 556.561 74 556.461 74H555.271C555.161 74 555.081 74.09 555.081 74.19V80.81ZM560.339 80.81C560.339 80.91 560.429 81 560.529 81H561.729C561.829 81 561.919 80.91 561.919 80.81V74.19C561.919 74.09 561.829 74 561.729 74H560.529C560.429 74 560.339 74.09 560.339 74.19V80.81ZM563.28 77.51C563.28 79.51 564.87 81.1 566.87 81.1C566.94 81.1 567.06 81.1 567.18 81.09L568.24 82.88C568.27 82.93 568.32 82.98 568.4 82.98H569.75C569.91 82.98 569.99 82.82 569.91 82.68L568.62 80.66C569.72 79.99 570.47 78.81 570.47 77.51C570.47 75.51 568.87 73.9 566.87 73.9C564.87 73.9 563.28 75.51 563.28 77.51ZM564.88 77.51C564.88 76.41 565.78 75.5 566.87 75.5C567.97 75.5 568.87 76.41 568.87 77.51C568.87 78.6 567.97 79.5 566.87 79.5C565.78 79.5 564.88 78.6 564.88 77.51ZM571.76 78.32C571.76 79.84 573.03 81.1 574.6 81.1C576.18 81.1 577.46 79.84 577.46 78.32V74.19C577.46 74.09 577.37 74 577.27 74H576.04C575.93 74 575.85 74.09 575.85 74.19V78.24C575.85 78.94 575.32 79.5 574.6 79.5C573.89 79.5 573.37 78.94 573.37 78.24V74.19C573.37 74.09 573.29 74 573.18 74H571.95C571.85 74 571.76 74.09 571.76 74.19V78.32ZM579.217 80.81C579.217 80.91 579.307 81 579.407 81H580.607C580.707 81 580.797 80.91 580.797 80.81V74.19C580.797 74.09 580.707 74 580.607 74H579.407C579.307 74 579.217 74.09 579.217 74.19V80.81ZM582.667 80.81C582.667 80.91 582.747 81 582.847 81H585.287C587.217 81 588.797 79.43 588.797 77.49C588.797 75.57 587.217 74 585.287 74H582.847C582.747 74 582.667 74.09 582.667 74.19V80.81ZM584.227 79.52V75.47H585.187C586.317 75.47 587.137 76.36 587.137 77.49C587.137 78.63 586.317 79.52 585.187 79.52H584.227ZM589.373 81H590.473C590.673 81 590.783 80.88 590.833 80.76L591.193 79.96H593.913L594.273 80.75C594.363 80.94 594.443 81 594.623 81H595.733C595.883 81 595.963 80.87 595.903 80.74L592.773 74.01C592.743 73.95 592.673 73.9 592.603 73.9H592.503C592.433 73.9 592.363 73.95 592.333 74.01L589.203 80.74C589.143 80.87 589.223 81 589.373 81ZM591.793 78.6L592.543 76.95H592.553L593.313 78.6H591.793ZM597.412 80.81C597.412 80.91 597.502 81 597.602 81H598.802C598.902 81 598.992 80.91 598.992 80.81V75.47H600.422C600.532 75.47 600.612 75.38 600.612 75.28V74.19C600.612 74.09 600.532 74 600.422 74H595.982C595.872 74 595.792 74.09 595.792 74.19V75.28C595.792 75.38 595.872 75.47 595.982 75.47H597.412V80.81ZM601.76 80.81C601.76 80.91 601.84 81 601.95 81H606.09C606.2 81 606.28 80.91 606.28 80.81V79.72C606.28 79.62 606.2 79.53 606.09 79.53H603.32V78.18H605.6C605.7 78.18 605.79 78.1 605.79 77.99V76.9C605.79 76.8 605.7 76.71 605.6 76.71H603.32V75.47H606.09C606.2 75.47 606.28 75.38 606.28 75.28V74.19C606.28 74.09 606.2 74 606.09 74H601.95C601.84 74 601.76 74.09 601.76 74.19V80.81ZM610.126 80.81C610.126 80.91 610.206 81 610.306 81H612.746C614.676 81 616.256 79.43 616.256 77.49C616.256 75.57 614.676 74 612.746 74H610.306C610.206 74 610.126 74.09 610.126 74.19V80.81ZM611.686 79.52V75.47H612.646C613.776 75.47 614.596 76.36 614.596 77.49C614.596 78.63 613.776 79.52 612.646 79.52H611.686ZM617.63 80.81C617.63 80.91 617.71 81 617.82 81H621.96C622.07 81 622.15 80.91 622.15 80.81V79.72C622.15 79.62 622.07 79.53 621.96 79.53H619.19V78.18H621.47C621.57 78.18 621.66 78.1 621.66 77.99V76.9C621.66 76.8 621.57 76.71 621.47 76.71H619.19V75.47H621.96C622.07 75.47 622.15 75.38 622.15 75.28V74.19C622.15 74.09 622.07 74 621.96 74H617.82C617.71 74 617.63 74.09 617.63 74.19V80.81ZM623.639 80.81C623.639 80.91 623.719 81 623.829 81H626.309C627.499 81 628.489 80.19 628.489 79.07C628.489 78.15 627.679 77.66 627.149 77.44C627.619 77.19 628.309 76.63 628.309 75.86C628.309 74.81 627.339 74 626.159 74H623.829C623.719 74 623.639 74.09 623.639 74.19V80.81ZM625.199 76.84V75.44H625.979C626.359 75.44 626.679 75.72 626.679 76.12C626.679 76.52 626.359 76.84 625.979 76.84H625.199ZM625.199 79.57V78.14H626.009C626.399 78.14 626.829 78.44 626.829 78.84C626.829 79.25 626.499 79.57 626.109 79.57H625.199ZM630.812 80.81C630.812 80.91 630.902 81 631.002 81H632.202C632.302 81 632.392 80.91 632.392 80.81V75.47H633.822C633.932 75.47 634.012 75.38 634.012 75.28V74.19C634.012 74.09 633.932 74 633.822 74H629.382C629.272 74 629.192 74.09 629.192 74.19V75.28C629.192 75.38 629.272 75.47 629.382 75.47H630.812V80.81ZM634.81 80.33C635.04 80.56 635.76 81.1 637.06 81.1C638.53 81.1 639.42 80.06 639.42 79.03C639.42 77.67 638.18 77.06 637.4 76.75C636.61 76.43 636.31 76.15 636.31 75.78C636.31 75.51 636.58 75.27 636.94 75.27C637.55 75.27 638.28 75.82 638.37 75.87C638.46 75.94 638.64 75.85 638.71 75.74L639.22 74.97C639.26 74.9 639.28 74.72 639.16 74.65C638.86 74.43 638.06 73.9 637.02 73.9C635.48 73.9 634.71 74.9 634.71 75.89C634.71 77.09 635.79 77.76 636.65 78.1C637.33 78.37 637.68 78.69 637.68 79.11C637.68 79.46 637.39 79.71 636.99 79.71C636.33 79.71 635.61 79.18 635.57 79.16C635.5 79.11 635.31 79.09 635.23 79.22L634.76 80.05C634.68 80.19 634.71 80.23 634.81 80.33Z" fill="white" fill-opacity="0.87"/>
<path d="M385.832 96.51C385.832 98.51 387.442 100.1 389.442 100.1C390.332 100.1 391.192 99.79 391.872 99.13C391.942 99.06 391.952 98.93 391.882 98.86L391.102 98.03C391.042 97.96 390.912 97.96 390.842 98.02C390.482 98.33 389.972 98.5 389.502 98.5C388.372 98.5 387.532 97.58 387.532 96.47C387.532 95.35 388.362 94.41 389.492 94.41C389.982 94.41 390.472 94.59 390.842 94.92C390.912 94.99 391.022 94.99 391.092 94.92L391.872 94.11C391.952 94.03 391.952 93.91 391.862 93.83C391.182 93.21 390.442 92.9 389.442 92.9C387.442 92.9 385.832 94.51 385.832 96.51ZM392.682 96.51C392.682 98.51 394.272 100.1 396.272 100.1C398.272 100.1 399.872 98.51 399.872 96.51C399.872 94.51 398.272 92.9 396.272 92.9C394.272 92.9 392.682 94.51 392.682 96.51ZM394.282 96.51C394.282 95.41 395.182 94.5 396.272 94.5C397.372 94.5 398.272 95.41 398.272 96.51C398.272 97.6 397.372 98.5 396.272 98.5C395.182 98.5 394.282 97.6 394.282 96.51ZM401.232 99.81C401.232 99.91 401.312 100 401.422 100H405.182C405.292 100 405.372 99.91 405.372 99.81V98.72C405.372 98.62 405.292 98.53 405.182 98.53H402.802V93.19C402.802 93.09 402.712 93 402.612 93H401.422C401.312 93 401.232 93.09 401.232 93.19V99.81ZM406.49 99.81C406.49 99.91 406.57 100 406.68 100H410.44C410.55 100 410.63 99.91 410.63 99.81V98.72C410.63 98.62 410.55 98.53 410.44 98.53H408.06V93.19C408.06 93.09 407.97 93 407.87 93H406.68C406.57 93 406.49 93.09 406.49 93.19V99.81ZM411.349 100H412.449C412.649 100 412.759 99.88 412.809 99.76L413.169 98.96H415.889L416.249 99.75C416.339 99.94 416.419 100 416.599 100H417.709C417.859 100 417.939 99.87 417.879 99.74L414.749 93.01C414.719 92.95 414.649 92.9 414.579 92.9H414.479C414.409 92.9 414.339 92.95 414.309 93.01L411.179 99.74C411.119 99.87 411.199 100 411.349 100ZM413.769 97.6L414.519 95.95H414.529L415.289 97.6H413.769ZM419.389 99.81C419.389 99.91 419.479 100 419.579 100H420.779C420.879 100 420.969 99.91 420.969 99.81V94.47H422.399C422.509 94.47 422.589 94.38 422.589 94.28V93.19C422.589 93.09 422.509 93 422.399 93H417.959C417.849 93 417.769 93.09 417.769 93.19V94.28C417.769 94.38 417.849 94.47 417.959 94.47H419.389V99.81ZM423.737 99.81C423.737 99.91 423.817 100 423.927 100H428.067C428.177 100 428.257 99.91 428.257 99.81V98.72C428.257 98.62 428.177 98.53 428.067 98.53H425.297V97.18H427.577C427.677 97.18 427.767 97.1 427.767 96.99V95.9C427.767 95.8 427.677 95.71 427.577 95.71H425.297V94.47H428.067C428.177 94.47 428.257 94.38 428.257 94.28V93.19C428.257 93.09 428.177 93 428.067 93H423.927C423.817 93 423.737 93.09 423.737 93.19V99.81ZM429.746 99.81C429.746 99.91 429.826 100 429.936 100H431.126C431.226 100 431.316 99.91 431.316 99.81V97.26H432.006L433.336 99.91C433.356 99.95 433.416 100 433.496 100H434.826C434.996 100 435.066 99.84 434.996 99.71L433.626 97.17C434.496 96.82 435.106 96.08 435.106 95.16C435.106 93.97 434.126 93 432.926 93H429.936C429.826 93 429.746 93.09 429.746 93.19V99.81ZM431.316 95.99V94.43H432.796C433.206 94.43 433.556 94.77 433.556 95.19C433.556 95.61 433.206 95.99 432.796 95.99H431.316ZM436.595 99.81C436.595 99.91 436.685 100 436.785 100H437.985C438.085 100 438.175 99.91 438.175 99.81V93.19C438.175 93.09 438.085 93 437.985 93H436.785C436.685 93 436.595 93.09 436.595 93.19V99.81ZM439.416 99.81C439.416 99.91 439.506 100 439.606 100H443.946C444.056 100 444.136 99.91 444.136 99.81V98.72C444.136 98.62 444.056 98.53 443.946 98.53H441.766V98.51L444.336 93.32V93.19C444.336 93.09 444.246 93 444.146 93H439.896C439.796 93 439.706 93.09 439.706 93.19V94.28C439.706 94.38 439.796 94.47 439.896 94.47H442.076V94.49L439.416 99.63V99.81ZM445.616 99.81C445.616 99.91 445.696 100 445.806 100H449.946C450.056 100 450.136 99.91 450.136 99.81V98.72C450.136 98.62 450.056 98.53 449.946 98.53H447.176V97.18H449.456C449.556 97.18 449.646 97.1 449.646 96.99V95.9C449.646 95.8 449.556 95.71 449.456 95.71H447.176V94.47H449.946C450.056 94.47 450.136 94.38 450.136 94.28V93.19C450.136 93.09 450.056 93 449.946 93H445.806C445.696 93 445.616 93.09 445.616 93.19V99.81ZM453.982 99.81C453.982 99.91 454.072 100 454.172 100H455.362C455.472 100 455.552 99.91 455.552 99.81V96.08H455.562L459.512 100.05C459.532 100.07 459.612 100.1 459.642 100.1H459.802C459.902 100.1 459.992 100.02 459.992 99.92V93.19C459.992 93.09 459.902 93 459.802 93H458.602C458.492 93 458.412 93.09 458.412 93.19V96.74H458.402L454.412 92.9H454.162C454.062 92.9 453.972 92.98 453.972 93.08L453.982 99.81ZM461.867 99.81C461.867 99.91 461.947 100 462.057 100H463.237C463.337 100 463.427 99.91 463.427 99.81V97.38H465.707C465.807 97.38 465.897 97.29 465.897 97.19V96.1C465.897 96 465.807 95.91 465.707 95.91H463.427V94.47H466.197C466.307 94.47 466.387 94.38 466.387 94.28V93.19C466.387 93.09 466.307 93 466.197 93H462.057C461.947 93 461.867 93.09 461.867 93.19V99.81ZM468.551 99.81C468.551 99.91 468.641 100 468.741 100H469.941C470.041 100 470.131 99.91 470.131 99.81V94.47H471.561C471.671 94.47 471.751 94.38 471.751 94.28V93.19C471.751 93.09 471.671 93 471.561 93H467.121C467.011 93 466.931 93.09 466.931 93.19V94.28C466.931 94.38 467.011 94.47 467.121 94.47H468.551V99.81ZM472.549 99.33C472.779 99.56 473.499 100.1 474.799 100.1C476.269 100.1 477.159 99.06 477.159 98.03C477.159 96.67 475.919 96.06 475.139 95.75C474.349 95.43 474.049 95.15 474.049 94.78C474.049 94.51 474.319 94.27 474.679 94.27C475.289 94.27 476.019 94.82 476.109 94.87C476.199 94.94 476.379 94.85 476.449 94.74L476.959 93.97C476.999 93.9 477.019 93.72 476.899 93.65C476.599 93.43 475.799 92.9 474.759 92.9C473.219 92.9 472.449 93.9 472.449 94.89C472.449 96.09 473.529 96.76 474.389 97.1C475.069 97.37 475.419 97.69 475.419 98.11C475.419 98.46 475.129 98.71 474.729 98.71C474.069 98.71 473.349 98.18 473.309 98.16C473.239 98.11 473.049 98.09 472.969 98.22L472.499 99.05C472.419 99.19 472.449 99.23 472.549 99.33Z" fill="white" fill-opacity="0.87"/>
<path d="M390.14 164.81C390.14 164.91 390.23 165 390.33 165H391.53C391.63 165 391.72 164.91 391.72 164.81V159.47H393.15C393.26 159.47 393.34 159.38 393.34 159.28V158.19C393.34 158.09 393.26 158 393.15 158H388.71C388.6 158 388.52 158.09 388.52 158.19V159.28C388.52 159.38 388.6 159.47 388.71 159.47H390.14V164.81ZM393.397 165H394.497C394.697 165 394.807 164.88 394.857 164.76L395.217 163.96H397.937L398.297 164.75C398.387 164.94 398.467 165 398.647 165H399.757C399.907 165 399.987 164.87 399.927 164.74L396.797 158.01C396.767 157.95 396.697 157.9 396.627 157.9H396.527C396.457 157.9 396.387 157.95 396.357 158.01L393.227 164.74C393.167 164.87 393.247 165 393.397 165ZM395.817 162.6L396.567 160.95H396.577L397.337 162.6H395.817ZM400.898 164.76C400.898 164.89 400.998 165 401.138 165H402.308C402.438 165 402.548 164.89 402.548 164.76V161.78L404.858 164.92C404.878 164.95 404.968 164.99 405.038 164.99H406.418C406.608 164.99 406.718 164.77 406.608 164.62L404.058 161.3L406.398 158.37C406.508 158.22 406.408 158 406.218 158H404.958C404.898 158 404.808 158.05 404.768 158.1L402.548 160.87V158.24C402.548 158.11 402.438 158 402.308 158H401.138C400.998 158 400.898 158.11 400.898 158.24V164.76ZM407.776 164.81C407.776 164.91 407.856 165 407.966 165H412.106C412.216 165 412.296 164.91 412.296 164.81V163.72C412.296 163.62 412.216 163.53 412.106 163.53H409.336V162.18H411.616C411.716 162.18 411.806 162.1 411.806 161.99V160.9C411.806 160.8 411.716 160.71 411.616 160.71H409.336V159.47H412.106C412.216 159.47 412.296 159.38 412.296 159.28V158.19C412.296 158.09 412.216 158 412.106 158H407.966C407.856 158 407.776 158.09 407.776 158.19V164.81ZM415.633 161.51C415.633 163.51 417.223 165.1 419.223 165.1C421.223 165.1 422.823 163.51 422.823 161.51C422.823 159.51 421.223 157.9 419.223 157.9C417.223 157.9 415.633 159.51 415.633 161.51ZM417.233 161.51C417.233 160.41 418.133 159.5 419.223 159.5C420.323 159.5 421.223 160.41 421.223 161.51C421.223 162.6 420.323 163.5 419.223 163.5C418.133 163.5 417.233 162.6 417.233 161.51ZM424.083 162.32C424.083 163.84 425.353 165.1 426.923 165.1C428.503 165.1 429.783 163.84 429.783 162.32V158.19C429.783 158.09 429.693 158 429.593 158H428.363C428.253 158 428.173 158.09 428.173 158.19V162.24C428.173 162.94 427.643 163.5 426.923 163.5C426.213 163.5 425.693 162.94 425.693 162.24V158.19C425.693 158.09 425.613 158 425.503 158H424.273C424.173 158 424.083 158.09 424.083 158.19V162.32ZM432.44 164.81C432.44 164.91 432.53 165 432.63 165H433.83C433.93 165 434.02 164.91 434.02 164.81V159.47H435.45C435.56 159.47 435.64 159.38 435.64 159.28V158.19C435.64 158.09 435.56 158 435.45 158H431.01C430.9 158 430.82 158.09 430.82 158.19V159.28C430.82 159.38 430.9 159.47 431.01 159.47H432.44V164.81ZM439.145 164.81C439.145 164.91 439.225 165 439.335 165H443.095C443.205 165 443.285 164.91 443.285 164.81V163.72C443.285 163.62 443.205 163.53 443.095 163.53H440.715V158.19C440.715 158.09 440.625 158 440.525 158H439.335C439.225 158 439.145 158.09 439.145 158.19V164.81ZM443.854 161.51C443.854 163.51 445.444 165.1 447.444 165.1C449.444 165.1 451.044 163.51 451.044 161.51C451.044 159.51 449.444 157.9 447.444 157.9C445.444 157.9 443.854 159.51 443.854 161.51ZM445.454 161.51C445.454 160.41 446.354 159.5 447.444 159.5C448.544 159.5 449.444 160.41 449.444 161.51C449.444 162.6 448.544 163.5 447.444 163.5C446.354 163.5 445.454 162.6 445.454 161.51ZM451.616 165H452.716C452.916 165 453.026 164.88 453.076 164.76L453.436 163.96H456.156L456.516 164.75C456.606 164.94 456.686 165 456.866 165H457.976C458.126 165 458.206 164.87 458.146 164.74L455.016 158.01C454.986 157.95 454.916 157.9 454.846 157.9H454.746C454.676 157.9 454.606 157.95 454.576 158.01L451.446 164.74C451.386 164.87 451.466 165 451.616 165ZM454.036 162.6L454.786 160.95H454.796L455.556 162.6H454.036ZM459.117 164.81C459.117 164.91 459.207 165 459.307 165H460.497C460.607 165 460.687 164.91 460.687 164.81V161.08H460.697L464.647 165.05C464.667 165.07 464.747 165.1 464.777 165.1H464.937C465.037 165.1 465.127 165.02 465.127 164.92V158.19C465.127 158.09 465.037 158 464.937 158H463.737C463.627 158 463.547 158.09 463.547 158.19V161.74H463.537L459.547 157.9H459.297C459.197 157.9 459.107 157.98 459.107 158.08L459.117 164.81ZM466.651 164.33C466.881 164.56 467.601 165.1 468.901 165.1C470.371 165.1 471.261 164.06 471.261 163.03C471.261 161.67 470.021 161.06 469.241 160.75C468.451 160.43 468.151 160.15 468.151 159.78C468.151 159.51 468.421 159.27 468.781 159.27C469.391 159.27 470.121 159.82 470.211 159.87C470.301 159.94 470.481 159.85 470.551 159.74L471.061 158.97C471.101 158.9 471.121 158.72 471.001 158.65C470.701 158.43 469.901 157.9 468.861 157.9C467.321 157.9 466.551 158.9 466.551 159.89C466.551 161.09 467.631 161.76 468.491 162.1C469.171 162.37 469.521 162.69 469.521 163.11C469.521 163.46 469.231 163.71 468.831 163.71C468.171 163.71 467.451 163.18 467.411 163.16C467.341 163.11 467.151 163.09 467.071 163.22L466.601 164.05C466.521 164.19 466.551 164.23 466.651 164.33Z" fill="white" fill-opacity="0.87"/>
<path d="M127.34 100.81C127.34 100.91 127.42 101 127.52 101H129.96C131.89 101 133.47 99.43 133.47 97.49C133.47 95.57 131.89 94 129.96 94H127.52C127.42 94 127.34 94.09 127.34 94.19V100.81ZM128.9 99.52V95.47H129.86C130.99 95.47 131.81 96.36 131.81 97.49C131.81 98.63 130.99 99.52 129.86 99.52H128.9ZM134.844 100.81C134.844 100.91 134.924 101 135.034 101H139.174C139.284 101 139.364 100.91 139.364 100.81V99.72C139.364 99.62 139.284 99.53 139.174 99.53H136.404V98.18H138.684C138.784 98.18 138.874 98.1 138.874 97.99V96.9C138.874 96.8 138.784 96.71 138.684 96.71H136.404V95.47H139.174C139.284 95.47 139.364 95.38 139.364 95.28V94.19C139.364 94.09 139.284 94 139.174 94H135.034C134.924 94 134.844 94.09 134.844 94.19V100.81ZM140.853 100.81C140.853 100.91 140.933 101 141.043 101H142.223C142.323 101 142.413 100.91 142.413 100.81V98.46H143.463C144.683 98.46 145.693 97.45 145.693 96.21C145.693 95 144.683 94 143.453 94H141.043C140.933 94 140.853 94.09 140.853 94.19V100.81ZM142.413 97V95.47H143.363C143.793 95.47 144.153 95.79 144.153 96.21C144.153 96.66 143.793 97 143.363 97H142.413ZM146.382 97.51C146.382 99.51 147.972 101.1 149.972 101.1C151.972 101.1 153.572 99.51 153.572 97.51C153.572 95.51 151.972 93.9 149.972 93.9C147.972 93.9 146.382 95.51 146.382 97.51ZM147.982 97.51C147.982 96.41 148.882 95.5 149.972 95.5C151.072 95.5 151.972 96.41 151.972 97.51C151.972 98.6 151.072 99.5 149.972 99.5C148.882 99.5 147.982 98.6 147.982 97.51ZM154.582 100.33C154.812 100.56 155.532 101.1 156.832 101.1C158.302 101.1 159.192 100.06 159.192 99.03C159.192 97.67 157.952 97.06 157.172 96.75C156.382 96.43 156.082 96.15 156.082 95.78C156.082 95.51 156.352 95.27 156.712 95.27C157.322 95.27 158.052 95.82 158.142 95.87C158.232 95.94 158.412 95.85 158.482 95.74L158.992 94.97C159.032 94.9 159.052 94.72 158.932 94.65C158.632 94.43 157.832 93.9 156.792 93.9C155.252 93.9 154.482 94.9 154.482 95.89C154.482 97.09 155.562 97.76 156.422 98.1C157.102 98.37 157.452 98.69 157.452 99.11C157.452 99.46 157.162 99.71 156.762 99.71C156.102 99.71 155.382 99.18 155.342 99.16C155.272 99.11 155.082 99.09 155.002 99.22L154.532 100.05C154.452 100.19 154.482 100.23 154.582 100.33ZM160.561 100.81C160.561 100.91 160.651 101 160.751 101H161.951C162.051 101 162.141 100.91 162.141 100.81V94.19C162.141 94.09 162.051 94 161.951 94H160.751C160.651 94 160.561 94.09 160.561 94.19V100.81ZM164.912 100.81C164.912 100.91 165.002 101 165.102 101H166.302C166.402 101 166.492 100.91 166.492 100.81V95.47H167.922C168.032 95.47 168.112 95.38 168.112 95.28V94.19C168.112 94.09 168.032 94 167.922 94H163.482C163.372 94 163.292 94.09 163.292 94.19V95.28C163.292 95.38 163.372 95.47 163.482 95.47H164.912V100.81ZM170.886 101H171.986C172.186 101 172.296 100.88 172.346 100.76L172.706 99.96H175.426L175.786 100.75C175.876 100.94 175.956 101 176.136 101H177.246C177.396 101 177.476 100.87 177.416 100.74L174.286 94.01C174.256 93.95 174.186 93.9 174.116 93.9H174.016C173.946 93.9 173.876 93.95 173.846 94.01L170.716 100.74C170.656 100.87 170.736 101 170.886 101ZM173.306 98.6L174.056 96.95H174.066L174.826 98.6H173.306ZM178.037 100.33C178.267 100.56 178.987 101.1 180.287 101.1C181.757 101.1 182.647 100.06 182.647 99.03C182.647 97.67 181.407 97.06 180.627 96.75C179.837 96.43 179.537 96.15 179.537 95.78C179.537 95.51 179.807 95.27 180.167 95.27C180.777 95.27 181.507 95.82 181.597 95.87C181.687 95.94 181.867 95.85 181.937 95.74L182.447 94.97C182.487 94.9 182.507 94.72 182.387 94.65C182.087 94.43 181.287 93.9 180.247 93.9C178.707 93.9 177.937 94.9 177.937 95.89C177.937 97.09 179.017 97.76 179.877 98.1C180.557 98.37 180.907 98.69 180.907 99.11C180.907 99.46 180.617 99.71 180.217 99.71C179.557 99.71 178.837 99.18 178.797 99.16C178.727 99.11 178.537 99.09 178.457 99.22L177.987 100.05C177.907 100.19 177.937 100.23 178.037 100.33ZM183.666 100.33C183.896 100.56 184.616 101.1 185.916 101.1C187.386 101.1 188.276 100.06 188.276 99.03C188.276 97.67 187.036 97.06 186.256 96.75C185.466 96.43 185.166 96.15 185.166 95.78C185.166 95.51 185.436 95.27 185.796 95.27C186.406 95.27 187.136 95.82 187.226 95.87C187.316 95.94 187.496 95.85 187.566 95.74L188.076 94.97C188.116 94.9 188.136 94.72 188.016 94.65C187.716 94.43 186.916 93.9 185.876 93.9C184.336 93.9 183.566 94.9 183.566 95.89C183.566 97.09 184.646 97.76 185.506 98.1C186.186 98.37 186.536 98.69 186.536 99.11C186.536 99.46 186.246 99.71 185.846 99.71C185.186 99.71 184.466 99.18 184.426 99.16C184.356 99.11 184.166 99.09 184.086 99.22L183.616 100.05C183.536 100.19 183.566 100.23 183.666 100.33ZM189.644 100.81C189.644 100.91 189.724 101 189.834 101H193.974C194.084 101 194.164 100.91 194.164 100.81V99.72C194.164 99.62 194.084 99.53 193.974 99.53H191.204V98.18H193.484C193.584 98.18 193.674 98.1 193.674 97.99V96.9C193.674 96.8 193.584 96.71 193.484 96.71H191.204V95.47H193.974C194.084 95.47 194.164 95.38 194.164 95.28V94.19C194.164 94.09 194.084 94 193.974 94H189.834C189.724 94 189.644 94.09 189.644 94.19V100.81ZM196.554 100.81C196.554 100.91 196.644 101 196.744 101H197.944C198.044 101 198.134 100.91 198.134 100.81V95.47H199.564C199.674 95.47 199.754 95.38 199.754 95.28V94.19C199.754 94.09 199.674 94 199.564 94H195.124C195.014 94 194.934 94.09 194.934 94.19V95.28C194.934 95.38 195.014 95.47 195.124 95.47H196.554V100.81ZM200.551 100.33C200.781 100.56 201.501 101.1 202.801 101.1C204.271 101.1 205.161 100.06 205.161 99.03C205.161 97.67 203.921 97.06 203.141 96.75C202.351 96.43 202.051 96.15 202.051 95.78C202.051 95.51 202.321 95.27 202.681 95.27C203.291 95.27 204.021 95.82 204.111 95.87C204.201 95.94 204.381 95.85 204.451 95.74L204.961 94.97C205.001 94.9 205.021 94.72 204.901 94.65C204.601 94.43 203.801 93.9 202.761 93.9C201.221 93.9 200.451 94.9 200.451 95.89C200.451 97.09 201.531 97.76 202.391 98.1C203.071 98.37 203.421 98.69 203.421 99.11C203.421 99.46 203.131 99.71 202.731 99.71C202.071 99.71 201.351 99.18 201.311 99.16C201.241 99.11 201.051 99.09 200.971 99.22L200.501 100.05C200.421 100.19 200.451 100.23 200.551 100.33Z" fill="white" fill-opacity="0.87"/>
<path d="M312.004 52.81C312.004 52.91 312.084 53 312.194 53H313.374C313.474 53 313.564 52.91 313.564 52.81V50.46H314.614C315.834 50.46 316.844 49.45 316.844 48.21C316.844 47 315.834 46 314.604 46H312.194C312.084 46 312.004 46.09 312.004 46.19V52.81ZM313.564 49V47.47H314.514C314.944 47.47 315.304 47.79 315.304 48.21C315.304 48.66 314.944 49 314.514 49H313.564ZM318.014 52.81C318.014 52.91 318.094 53 318.204 53H319.394C319.494 53 319.584 52.91 319.584 52.81V50.26H320.274L321.604 52.91C321.624 52.95 321.684 53 321.764 53H323.094C323.264 53 323.334 52.84 323.264 52.71L321.894 50.17C322.764 49.82 323.374 49.08 323.374 48.16C323.374 46.97 322.394 46 321.194 46H318.204C318.094 46 318.014 46.09 318.014 46.19V52.81ZM319.584 48.99V47.43H321.064C321.474 47.43 321.824 47.77 321.824 48.19C321.824 48.61 321.474 48.99 321.064 48.99H319.584ZM324.863 52.81C324.863 52.91 324.953 53 325.053 53H326.253C326.353 53 326.443 52.91 326.443 52.81V46.19C326.443 46.09 326.353 46 326.253 46H325.053C324.953 46 324.863 46.09 324.863 46.19V52.81ZM327.804 49.51C327.804 51.51 329.414 53.1 331.414 53.1C332.304 53.1 333.164 52.79 333.844 52.13C333.914 52.06 333.924 51.93 333.854 51.86L333.074 51.03C333.014 50.96 332.884 50.96 332.814 51.02C332.454 51.33 331.944 51.5 331.474 51.5C330.344 51.5 329.504 50.58 329.504 49.47C329.504 48.35 330.334 47.41 331.464 47.41C331.954 47.41 332.444 47.59 332.814 47.92C332.884 47.99 332.994 47.99 333.064 47.92L333.844 47.11C333.924 47.03 333.924 46.91 333.834 46.83C333.154 46.21 332.414 45.9 331.414 45.9C329.414 45.9 327.804 47.51 327.804 49.51ZM335.192 52.81C335.192 52.91 335.272 53 335.382 53H339.522C339.632 53 339.712 52.91 339.712 52.81V51.72C339.712 51.62 339.632 51.53 339.522 51.53H336.752V50.18H339.032C339.132 50.18 339.222 50.1 339.222 49.99V48.9C339.222 48.8 339.132 48.71 339.032 48.71H336.752V47.47H339.522C339.632 47.47 339.712 47.38 339.712 47.28V46.19C339.712 46.09 339.632 46 339.522 46H335.382C335.272 46 335.192 46.09 335.192 46.19V52.81ZM343.559 52.81C343.559 52.91 343.639 53 343.749 53H344.929C345.029 53 345.119 52.91 345.119 52.81V50.38H347.399C347.499 50.38 347.589 50.29 347.589 50.19V49.1C347.589 49 347.499 48.91 347.399 48.91H345.119V47.47H347.889C347.999 47.47 348.079 47.38 348.079 47.28V46.19C348.079 46.09 347.999 46 347.889 46H343.749C343.639 46 343.559 46.09 343.559 46.19V52.81ZM349.343 52.81C349.343 52.91 349.423 53 349.533 53H353.673C353.783 53 353.863 52.91 353.863 52.81V51.72C353.863 51.62 353.783 51.53 353.673 51.53H350.903V50.18H353.183C353.283 50.18 353.373 50.1 353.373 49.99V48.9C353.373 48.8 353.283 48.71 353.183 48.71H350.903V47.47H353.673C353.783 47.47 353.863 47.38 353.863 47.28V46.19C353.863 46.09 353.783 46 353.673 46H349.533C349.423 46 349.343 46.09 349.343 46.19V52.81ZM355.353 52.81C355.353 52.91 355.433 53 355.543 53H359.683C359.793 53 359.873 52.91 359.873 52.81V51.72C359.873 51.62 359.793 51.53 359.683 51.53H356.913V50.18H359.193C359.293 50.18 359.383 50.1 359.383 49.99V48.9C359.383 48.8 359.293 48.71 359.193 48.71H356.913V47.47H359.683C359.793 47.47 359.873 47.38 359.873 47.28V46.19C359.873 46.09 359.793 46 359.683 46H355.543C355.433 46 355.353 46.09 355.353 46.19V52.81ZM361.362 52.81C361.362 52.91 361.442 53 361.542 53H363.982C365.912 53 367.492 51.43 367.492 49.49C367.492 47.57 365.912 46 363.982 46H361.542C361.442 46 361.362 46.09 361.362 46.19V52.81ZM362.922 51.52V47.47H363.882C365.012 47.47 365.832 48.36 365.832 49.49C365.832 50.63 365.012 51.52 363.882 51.52H362.922Z" fill="white" fill-opacity="0.87"/>
<path d="M198.707 130.707C199.098 130.317 199.098 129.683 198.707 129.293L192.343 122.929C191.953 122.538 191.319 122.538 190.929 122.929C190.538 123.319 190.538 123.953 190.929 124.343L196.586 130L190.929 135.657C190.538 136.047 190.538 136.681 190.929 137.071C191.319 137.462 191.953 137.462 192.343 137.071L198.707 130.707ZM138 131H198V129H138V131Z" fill="#F94432"/>
<path d="M293.293 63.7071C293.683 64.0976 294.317 64.0976 294.707 63.7071L301.071 57.3431C301.462 56.9526 301.462 56.3195 301.071 55.9289C300.681 55.5384 300.047 55.5384 299.657 55.9289L294 61.5858L288.343 55.9289C287.953 55.5384 287.319 55.5384 286.929 55.9289C286.538 56.3195 286.538 56.9526 286.929 57.3431L293.293 63.7071ZM293 38V63H295V38H293Z" fill="#F94432"/>
<path d="M538.293 104.707C538.683 105.098 539.317 105.098 539.707 104.707L546.071 98.3431C546.462 97.9526 546.462 97.3195 546.071 96.9289C545.681 96.5384 545.047 96.5384 544.657 96.9289L539 102.586L533.343 96.9289C532.953 96.5384 532.319 96.5384 531.929 96.9289C531.538 97.3195 531.538 97.9526 531.929 98.3431L538.293 104.707ZM538 44V104H540V44H538Z" fill="#F94432"/>
<path d="M399.293 129.293C398.902 129.683 398.902 130.317 399.293 130.707L405.657 137.071C406.047 137.462 406.681 137.462 407.071 137.071C407.462 136.681 407.462 136.047 407.071 135.657L401.414 130L407.071 124.343C407.462 123.953 407.462 123.319 407.071 122.929C406.681 122.538 406.047 122.538 405.657 122.929L399.293 129.293ZM460.707 130.707C461.098 130.317 461.098 129.683 460.707 129.293L454.343 122.929C453.953 122.538 453.319 122.538 452.929 122.929C452.538 123.319 452.538 123.953 452.929 124.343L458.586 130L452.929 135.657C452.538 136.047 452.538 136.681 452.929 137.071C453.319 137.462 453.953 137.462 454.343 137.071L460.707 130.707ZM400 131H460V129H400V131Z" fill="#F94432"/>
<defs>
<linearGradient id="paint0_linear_1281_6055" x1="294.381" y1="116" x2="294.381" y2="134" gradientUnits="userSpaceOnUse">
<stop stop-color="#1C0200"/>
<stop offset="1" stop-color="#1C0200" stop-opacity="0.5"/>
</linearGradient>
<clipPath id="clip0_1281_6055">
<rect width="36.72" height="36" fill="white" transform="translate(276 98)"/>
</clipPath>
</defs>
</svg>
