<svg width="18" height="18" viewBox="0 0 18 18" fill="none" xmlns="http://www.w3.org/2000/svg">
  <path fill-rule="evenodd" clip-rule="evenodd"
    d="M17 9C17 13.4183 13.4183 17 9 17C4.58172 17 1 13.4183 1 9C1 4.58172 4.58172 1 9 1C13.4183 1 17 4.58172 17 9ZM18 9C18 13.9706 13.9706 18 9 18C4.02944 18 0 13.9706 0 9C0 4.02944 4.02944 0 9 0C13.9706 0 18 4.02944 18 9ZM10.4558 11.402L13.3048 6.53015L14.0171 7.75523L10.4843 13.8521L9.8005 12.6271L6.95148 7.75523H5.52697L9.05975 13.8521H7.63524L3.96001 7.75523L4.67226 6.53015H10.3703L11.0826 5.30507H5.38452L6.06828 4.07999H11.7663L12.4786 5.30507L9.62956 10.1769L10.4558 11.402ZM8.3475 7.78372L9.03127 8.98031L9.62956 7.78372H8.3475Z"
    fill="url(#paint0_linear_83_7391)" />
  <defs>
    <linearGradient id="paint0_linear_83_7391" x1="6.82503" y1="4.08" x2="12.225" y2="13.56"
      gradientUnits="userSpaceOnUse">
      <stop stop-color="#1AE2FA" />
      <stop offset="1" stop-color="#B94AFF" />
    </linearGradient>
  </defs>
</svg>