<svg width="31" height="31" viewBox="0 0 31 31" fill="none" xmlns="http://www.w3.org/2000/svg">
<path d="M14.4919 25.6582H7.87939V13.1582H22.8794V14.4082C23.7544 14.4082 24.5919 14.5332 25.3794 14.7707V13.1582C25.3794 11.7832 24.2544 10.6582 22.8794 10.6582H21.6294V8.1582C21.6294 4.7082 18.8294 1.9082 15.3794 1.9082C11.9294 1.9082 9.12939 4.7082 9.12939 8.1582V10.6582H7.87939C6.50439 10.6582 5.37939 11.7832 5.37939 13.1582V25.6582C5.37939 27.0332 6.50439 28.1582 7.87939 28.1582H15.7044C15.1794 27.4082 14.7669 26.5582 14.4919 25.6582ZM11.6294 8.1582C11.6294 6.0832 13.3044 4.4082 15.3794 4.4082C17.4544 4.4082 19.1294 6.0832 19.1294 8.1582V10.6582H11.6294V8.1582Z" fill="#F94432"/>
<path opacity="0.3" d="M14.1294 23.1582C14.1294 18.3207 18.0419 14.4082 22.8794 14.4082V13.1582H7.87939V25.6582H14.4919C14.2544 24.8707 14.1294 24.0332 14.1294 23.1582Z" fill="#F94432"/>
<path d="M22.8794 16.9082C19.4294 16.9082 16.6294 19.7082 16.6294 23.1582C16.6294 26.6082 19.4294 29.4082 22.8794 29.4082C26.3294 29.4082 29.1294 26.6082 29.1294 23.1582C29.1294 19.7082 26.3294 16.9082 22.8794 16.9082ZM24.9419 26.0957L22.2544 23.4082V19.4082H23.5044V22.8957L25.8169 25.2082L24.9419 26.0957Z" fill="#F94432"/>
</svg>
