<svg width="33" height="33" viewBox="0 0 33 33" fill="none" xmlns="http://www.w3.org/2000/svg">
<path opacity="0.3" d="M8.14062 27.3248H24.1406V13.9915H8.14062V27.3248ZM16.1406 17.9915C17.6073 17.9915 18.8073 19.1915 18.8073 20.6582C18.8073 22.1248 17.6073 23.3248 16.1406 23.3248C14.674 23.3248 13.474 22.1248 13.474 20.6582C13.474 19.1915 14.674 17.9915 16.1406 17.9915Z" fill="#F94432"/>
<path d="M24.1408 11.3249H22.8075V8.65818C22.8075 4.97818 19.8208 1.99152 16.1408 1.99152C12.4608 1.99152 9.47412 4.97818 9.47412 8.65818V11.3249H8.14079C6.67412 11.3249 5.47412 12.5248 5.47412 13.9915V27.3249C5.47412 28.7915 6.67412 29.9915 8.14079 29.9915H24.1408C25.6075 29.9915 26.8075 28.7915 26.8075 27.3249V13.9915C26.8075 12.5248 25.6075 11.3249 24.1408 11.3249ZM12.1408 8.65818C12.1408 6.44485 13.9275 4.65818 16.1408 4.65818C18.3541 4.65818 20.1408 6.44485 20.1408 8.65818V11.3249H12.1408V8.65818ZM24.1408 27.3249H8.14079V13.9915H24.1408V27.3249ZM16.1408 23.3249C17.6075 23.3249 18.8075 22.1249 18.8075 20.6582C18.8075 19.1915 16.1408 17.9915 16.1408 17.9915C16.1408 17.9915 13.4741 19.1915 13.4741 20.6582C13.4741 22.1249 14.6741 23.3249 16.1408 23.3249Z" fill="#F94432"/>
</svg>
