<svg width="33" height="32" viewBox="0 0 33 32" fill="none" xmlns="http://www.w3.org/2000/svg">
<path opacity="0.3" d="M16.4985 18.6667C14.2985 18.6667 12.4985 16.8667 12.4985 14.6667V6.66669H20.4985V14.6667C20.4985 16.8667 18.6985 18.6667 16.4985 18.6667Z" fill="#F94432"/>
<path d="M25.8319 6.66667H23.1652V4H9.83187V6.66667H7.1652C5.69854 6.66667 4.49854 7.86667 4.49854 9.33333V10.6667C4.49854 14.0667 7.05854 16.84 10.3519 17.2533C11.1919 19.2533 12.9919 20.76 15.1652 21.2V25.3333H9.83187V28H23.1652V25.3333H17.8319V21.2C20.0052 20.76 21.8052 19.2533 22.6452 17.2533C25.9385 16.84 28.4985 14.0667 28.4985 10.6667V9.33333C28.4985 7.86667 27.2985 6.66667 25.8319 6.66667ZM7.1652 10.6667V9.33333H9.83187V14.4267C8.2852 13.8667 7.1652 12.4 7.1652 10.6667ZM16.4985 18.6667C14.2985 18.6667 12.4985 16.8667 12.4985 14.6667V6.66667H20.4985V14.6667C20.4985 16.8667 18.6985 18.6667 16.4985 18.6667ZM25.8319 10.6667C25.8319 12.4 24.7119 13.8667 23.1652 14.4267V9.33333H25.8319V10.6667Z" fill="#F94432"/>
</svg>
