<svg width="33" height="33" viewBox="0 0 33 33" fill="none" xmlns="http://www.w3.org/2000/svg">
<path opacity="0.3" d="M16.2596 6.37817L24.1396 10.7515L20.1263 12.9782C19.1529 11.9648 17.7796 11.3248 16.2596 11.3248C14.7396 11.3248 13.3663 11.9648 12.3929 12.9782L8.3796 10.7515L16.2596 6.37817ZM14.9263 26.2048L6.92627 21.7648V13.0048L11.0996 15.3248C10.9796 15.7382 10.9263 16.1915 10.9263 16.6582C10.9263 19.1382 12.6196 21.2315 14.9263 21.8182V26.2048ZM13.5929 16.6582C13.5929 15.1915 14.7929 13.9915 16.2596 13.9915C17.7263 13.9915 18.9263 15.1915 18.9263 16.6582C18.9263 18.1248 17.7263 19.3248 16.2596 19.3248C14.7929 19.3248 13.5929 18.1248 13.5929 16.6582ZM17.5929 26.2048V21.8315C19.8996 21.2448 21.5929 19.1515 21.5929 16.6715C21.5929 16.2048 21.5396 15.7515 21.4196 15.3248L25.5929 13.0048V21.7648L17.5929 26.2048Z" fill="#F94432"/>
<path d="M28.2598 9.99156L16.2598 3.32489L4.25977 9.99156V23.3249L16.2598 29.9916L28.2598 23.3249V9.99156ZM16.2598 6.37822L24.1398 10.7516L20.1264 12.9782C19.1531 11.9649 17.7798 11.3249 16.2598 11.3249C14.7398 11.3249 13.3664 11.9649 12.3931 12.9782L8.37977 10.7516L16.2598 6.37822ZM14.9264 26.2049L6.92643 21.7649V13.0049L11.0998 15.3249C10.9798 15.7382 10.9264 16.1916 10.9264 16.6582C10.9264 19.1382 12.6198 21.2316 14.9264 21.8182V26.2049ZM13.5931 16.6582C13.5931 15.1916 14.7931 13.9916 16.2598 13.9916C17.7264 13.9916 18.9264 15.1916 18.9264 16.6582C18.9264 18.1249 17.7264 19.3249 16.2598 19.3249C14.7931 19.3249 13.5931 18.1249 13.5931 16.6582ZM17.5931 26.2049V21.8316C19.8998 21.2449 21.5931 19.1516 21.5931 16.6716C21.5931 16.2049 21.5398 15.7516 21.4198 15.3249L25.5931 13.0049V21.7649L17.5931 26.2049Z" fill="#F94432"/>
</svg>
