<svg width="25" height="24" viewBox="0 0 25 24" fill="none" xmlns="http://www.w3.org/2000/svg">
<g clip-path="url(#clip0_830_11125)">
<path opacity="0.3" d="M12.85 16.1799L8.31999 11.6499L5.79999 18.6999L12.85 16.1799Z" fill="#F94432"/>
<path d="M2.5 22L16.5 17L7.5 7.99996L2.5 22ZM12.85 16.18L5.8 18.7L8.32 11.65L12.85 16.18ZM15.03 12.53L20.62 6.93996C21.11 6.44996 21.9 6.44996 22.39 6.93996L22.98 7.52996L24.04 6.46996L23.45 5.87996C22.38 4.80996 20.63 4.80996 19.56 5.87996L13.97 11.47L15.03 12.53ZM9.97 7.46996L11.03 8.52996L11.62 7.93996C12.69 6.86996 12.69 5.11996 11.62 4.04996L11.03 3.45996L9.97 4.52996L10.56 5.11996C11.04 5.59996 11.04 6.39996 10.56 6.87996L9.97 7.46996ZM17.56 11.88L15.97 13.47L17.03 14.53L18.62 12.94C19.11 12.45 19.9 12.45 20.39 12.94L22 14.55L23.06 13.49L21.45 11.88C20.37 10.81 18.63 10.81 17.56 11.88ZM15.56 5.87996L11.97 9.46996L13.03 10.53L16.62 6.93996C17.69 5.86996 17.69 4.11996 16.62 3.04996L15.03 1.45996L13.97 2.51996L15.56 4.10996C16.04 4.59996 16.04 5.39996 15.56 5.87996Z" fill="#F94432"/>
</g>
<defs>
<clipPath id="clip0_830_11125">
<rect width="24" height="24" fill="white" transform="translate(0.5)"/>
</clipPath>
</defs>
</svg>
